<svg xmlns="http://www.w3.org/2000/svg" xmlns:xlink="http://www.w3.org/1999/xlink" id="Capa_1" x="0px" y="0px" viewBox="0 0 496 496" style="enable-background:new 0 0 496 496;" xml:space="preserve" width="512px" height="512px" class=""><g><g>
	<path style="fill:#F69600" d="M448,176h-80V96h80V176z" data-original="#F0BC5E" class="" data-old_color="#F0BC5E"></path>
	<path style="fill:#F69600" d="M448,304h-80v-80h80V304z" data-original="#F0BC5E" class="" data-old_color="#F0BC5E"></path>
	<path style="fill:#F69600" d="M448,432h-80v-80h80V432z" data-original="#F0BC5E" class="" data-old_color="#F0BC5E"></path>
</g><path d="M0,0v496h496V0H0z M480,16v48H16V16H480z M16,80h304v400H16V80z M336,480V80h144v400H336z" data-original="#000000" class="active-path" style="fill:#374957" data-old_color="#000000"></path><path d="M264,208v16h24v112H48V224h24v-16H32v240h272V208H264z M48,432v-80h240v80H48z" data-original="#000000" class="active-path" style="fill:#374957" data-old_color="#000000"></path><path style="fill:#F69600" d="M168,320c-57.344,0-104-46.656-104-104s46.656-104,104-104s104,46.656,104,104S225.344,320,168,320z" data-original="#F0BC5E" class="" data-old_color="#F0BC5E"></path><path d="M128,163.056v105.888L233.888,216L128,163.056z M144,188.944L198.112,216L144,243.056V188.944z" data-original="#000000" class="active-path" style="fill:#374957" data-old_color="#000000"></path><path d="M168,368c-10.416,0-19.216,6.712-22.528,16H64v16h81.472c3.312,9.288,12.112,16,22.528,16s19.216-6.712,22.528-16H272v-16  h-81.472C187.216,374.712,178.416,368,168,368z M168,400c-4.408,0-8-3.592-8-8s3.592-8,8-8s8,3.592,8,8S172.408,400,168,400z" data-original="#000000" class="active-path" style="fill:#374957" data-old_color="#000000"></path><rect x="368" y="192" width="48" height="16" data-original="#000000" class="active-path" style="fill:#374957" data-old_color="#000000"></rect><rect x="368" y="320" width="48" height="16" data-original="#000000" class="active-path" style="fill:#374957" data-old_color="#000000"></rect><rect x="368" y="448" width="48" height="16" data-original="#000000" class="active-path" style="fill:#374957" data-old_color="#000000"></rect><rect x="32" y="32" width="16" height="16" data-original="#000000" class="active-path" style="fill:#374957" data-old_color="#000000"></rect><rect x="64" y="32" width="16" height="16" data-original="#000000" class="active-path" style="fill:#374957" data-old_color="#000000"></rect><rect x="96" y="32" width="16" height="16" data-original="#000000" class="active-path" style="fill:#374957" data-old_color="#000000"></rect><rect x="432" y="192" width="16" height="16" data-original="#000000" class="active-path" style="fill:#374957" data-old_color="#000000"></rect><rect x="432" y="320" width="16" height="16" data-original="#000000" class="active-path" style="fill:#374957" data-old_color="#000000"></rect><rect x="432" y="448" width="16" height="16" data-original="#000000" class="active-path" style="fill:#374957" data-old_color="#000000"></rect></g> </svg>