<svg xmlns="http://www.w3.org/2000/svg" id="line" height="512px" viewBox="0 0 36 36" width="512px" class=""><g><g><path d="m8.377 4.167c6.917 0 11.667-3.583 15-3.583s10.333 1.916 10.333 17.249-9.417 17.583-13.083 17.583c-17.167.001-24.5-31.249-12.25-31.249z" fill="#efefef" data-original="#EFEFEF" class=""></path></g><g><g><path d="m9.625 3.25h1v2h-1z" fill="#a4afc1" data-original="#A4AFC1"></path></g><g><path d="m6.125 6.25h2v1h-2z" fill="#a4afc1" data-original="#A4AFC1"></path></g><g><path d="m11.875 6.25h2v1h-2z" fill="#a4afc1" data-original="#A4AFC1"></path></g></g><g><path d="m12.25 29.25h-4.5v-5c0-.276.224-.5.5-.5h3.5c.276 0 .5.224.5.5z" fill="#f3f3f1" data-original="#F3F3F1"></path></g><g><path d="m20.25 29.25h-4.5v-11c0-.276.224-.5.5-.5h3.5c.276 0 .5.224.5.5z" fill="#2fdf84" data-original="#2FDF84" class="active-path" style="fill:#FFB229" data-old_color="#2fdf84"></path></g><g><path d="m28.25 29.25h-4.5v-9c0-.276.224-.5.5-.5h3.5c.276 0 .5.224.5.5z" fill="#f3f3f1" data-original="#F3F3F1"></path></g><g><path d="m10.5 23.75h-2.25c-.276 0-.5.224-.5.5v5h2.25v-5c0-.276.224-.5.5-.5z" fill="#d5dbe1" data-original="#D5DBE1"></path></g><g><path d="m26.5 19.75h-2.25c-.276 0-.5.224-.5.5v9h2.25v-9c0-.276.224-.5.5-.5z" fill="#d5dbe1" data-original="#D5DBE1"></path></g><g><path d="m18.5 17.75h-2.25c-.276 0-.5.224-.5.5v11h2.25v-11c0-.276.224-.5.5-.5z" fill="#00b871" data-original="#00B871" class="" style="fill:#EB7D16" data-old_color="#00b871"></path></g><g><path d="m2 28.5h32v1.5h-32z" data-original="#000000" class="" style="fill:#374957" data-old_color="#000000"></path></g><g><path d="m12.25 30h-4.5c-.414 0-.75-.336-.75-.75v-5c0-.689.561-1.25 1.25-1.25h3.5c.689 0 1.25.561 1.25 1.25v5c0 .414-.336.75-.75.75zm-3.75-1.5h3v-4h-3z" data-original="#000000" class="" style="fill:#374957" data-old_color="#000000"></path></g><g><path d="m20.25 30h-4.5c-.414 0-.75-.336-.75-.75v-11c0-.689.561-1.25 1.25-1.25h3.5c.689 0 1.25.561 1.25 1.25v11c0 .414-.336.75-.75.75zm-3.75-1.5h3v-10h-3z" data-original="#000000" class="" style="fill:#374957" data-old_color="#000000"></path></g><g><path d="m28.25 30h-4.5c-.414 0-.75-.336-.75-.75v-9c0-.689.561-1.25 1.25-1.25h3.5c.689 0 1.25.561 1.25 1.25v9c0 .414-.336.75-.75.75zm-3.75-1.5h3v-8h-3z" data-original="#000000" class="" style="fill:#374957" data-old_color="#000000"></path></g><g><path d="m9.266 16.794-1.031-1.089 4.75-4.5c.174-.165.418-.237.649-.193l7.863 1.43 5.223-5.222 1.06 1.06-5.5 5.5c-.174.174-.427.252-.664.208l-7.876-1.432z" data-original="#000000" class="" style="fill:#374957" data-old_color="#000000"></path></g><g><path d="m28 12h-1.5v-3.5h-3.5v-1.5h4.25c.414 0 .75.336.75.75z" data-original="#000000" class="" style="fill:#374957" data-old_color="#000000"></path></g></g></svg>