<svg xmlns="http://www.w3.org/2000/svg" height="512px" viewBox="0 0 36 36" width="512px" class=""><g><g id="BG"><g><path d="m34.904 20.355c-3.782-5.791-3.38-11.727-5.203-14.518s-7.256-7.603-20.093.782-9.572 17.5-7.566 20.569c9.388 14.372 39.561 3.423 32.862-6.833z" fill="#efefef" data-original="#EFEFEF" class="active-path" style="fill:#EFEFEF"></path></g></g><g id="effect"><g><path d="m24.012 8.25c-.827 0-1.5-.673-1.5-1.5s.673-1.5 1.5-1.5 1.5.673 1.5 1.5-.673 1.5-1.5 1.5zm0-2c-.276 0-.5.225-.5.5s.224.5.5.5.5-.225.5-.5-.224-.5-.5-.5z" fill="#a4afc1" data-original="#A4AFC1"></path></g><g><g><path d="m14.492 21.5h1v2h-1z" fill="#a4afc1" data-original="#A4AFC1"></path></g><g><path d="m14.492 27.25h1v2h-1z" fill="#a4afc1" data-original="#A4AFC1"></path></g><g><path d="m10.992 24.75h2v1h-2z" fill="#a4afc1" data-original="#A4AFC1"></path></g><g><path d="m16.742 24.75h2v1h-2z" fill="#a4afc1" data-original="#A4AFC1"></path></g></g></g><g id="color"><g><path d="m28.25 11.75s-5 7.5-11 5.683c-6.021-1.824-9.5 1.513-9.5 1.513v-10.958s5.646-1.287 10 1.762c4.999 3.501 10.5 2 10.5 2z" fill="#2fdf84" data-original="#2FDF84" class="" style="fill:#FFB229" data-old_color="#2fdf84"></path></g></g><g id="shadow"><g><g><path d="m28.03 12.06c.143-.194.22-.31.22-.31s-.695.185-1.803.273c.573.045 1.103.052 1.583.037z" fill="#00b871" data-original="#00B871" class="" style="fill:#EB7D16" data-old_color="#00b871"></path></g><g><path d="m19.5 17.433c-1.776-.538-3.323-.62-4.633-.478.744.076 1.535.222 2.383.478 1.061.321 2.087.34 3.063.172-.269-.046-.539-.089-.813-.172z" fill="#00b871" data-original="#00B871" class="" style="fill:#EB7D16" data-old_color="#00b871"></path></g><g><path d="m10 7.988s.686-.152 1.751-.227c-2.275-.163-4.001.227-4.001.227v10.958s.789-.746 2.25-1.341z" fill="#00b871" data-original="#00B871" class="" style="fill:#EB7D16" data-old_color="#00b871"></path></g></g></g><g id="_x31_.5"><g><g><path d="m7 6.75h1.5v22.5h-1.5z" data-original="#000000" class="" style="fill:#374957" data-old_color="#000000"></path></g></g><g><g><path d="m7.75 19.696c-.1 0-.199-.02-.294-.061-.277-.116-.456-.388-.456-.689v-10.959c0-.35.242-.653.583-.731.244-.054 6.023-1.322 10.597 1.88 4.657 3.262 9.821 1.905 9.873 1.891.302-.083.623.031.806.285s.189.595.016.854c-.216.325-5.384 7.943-11.841 5.984-5.537-1.676-8.731 1.308-8.764 1.337-.143.137-.33.209-.52.209zm.75-11.077v8.876c1.607-.936 4.688-2.078 8.967-.78 3.809 1.156 7.284-1.974 9.012-3.935-2.157.172-5.749-.027-9.159-2.416-3.236-2.266-7.321-1.959-8.82-1.745z" data-original="#000000" class="" style="fill:#374957" data-old_color="#000000"></path></g></g></g></g></svg>