<svg xmlns="http://www.w3.org/2000/svg" height="512px" viewBox="0 0 36 36" width="512px" class=""><g><g id="BG"><g><path d="m11.532 34.802c6.645-1.919 12.203.206 15.405-.719s9.396-4.708 5.142-19.44-13.924-14.28-17.447-13.263c-16.493 4.763-14.869 36.821-3.1 33.422z" fill="#efefef" data-original="#EFEFEF" class=""></path></g></g><g id="effect"><g><g><path d="m7.033 11.306h2v1h-2z" fill="#a4afc1" transform="matrix(.707 -.707 .707 .707 -5.995 9.138)" data-original="#A4AFC1"></path></g><g><path d="m2.967 15.371h2v1h-2z" fill="#a4afc1" transform="matrix(.707 -.707 .707 .707 -10.061 7.454)" data-original="#A4AFC1"></path></g><g><path d="m3.467 10.629h1v2h-1z" fill="#a4afc1" transform="matrix(.707 -.707 .707 .707 -7.061 6.211)" data-original="#A4AFC1"></path></g></g><g><path d="m27.598 9.468c-.827 0-1.5-.673-1.5-1.5s.673-1.5 1.5-1.5 1.5.673 1.5 1.5-.673 1.5-1.5 1.5zm0-2c-.275 0-.5.225-.5.5s.225.5.5.5.5-.225.5-.5-.225-.5-.5-.5z" fill="#a4afc1" data-original="#A4AFC1"></path></g></g><g id="color"><g><path d="m11.75 14.75v5.5l12.5 5v-15.5z" fill="#f3f3f1" data-original="#F3F3F1" class=""></path></g><g><path d="m8.25 20.25h3.5v-5.5h-3.5c-.828 0-1.5.672-1.5 1.5v2.75c0 .828.672 1.25 1.5 1.25z" fill="#2fdf84" data-original="#2FDF84" class="active-path" style="fill:#FFB229" data-old_color="#2fdf84"></path></g><g><path d="m13.02 20.74-3.27-.49 1 7h3z" fill="#2fdf84" data-original="#2FDF84" class="active-path" style="fill:#FFB229" data-old_color="#2fdf84"></path></g></g><g id="shadow"><g><path d="m14 20.25v-5.5l10.25-4.1v-.9l-12.5 5v5.5l12.5 5v-.9z" fill="#d5dbe1" data-original="#D5DBE1"></path></g><g><path d="m9 19v-2.75c0-.828.672-1.5 1.5-1.5h-2.25c-.828 0-1.5.672-1.5 1.5v2.75c0 .828.672 1.25 1.5 1.25h2.25c-.828 0-1.5-.422-1.5-1.25z" fill="#00b871" data-original="#00B871" class="" style="fill:#EB7D16" data-old_color="#00b871"></path></g><g><path d="m9.75 20.25 1 7h2.25l-.951-6.655z" fill="#00b871" data-original="#00B871" class="" style="fill:#EB7D16" data-old_color="#00b871"></path></g></g><g id="_x31_.5"><g><g><path d="m24.25 26c-.094 0-.188-.018-.278-.054l-12.5-5c-.285-.114-.472-.389-.472-.696v-5.5c0-.307.187-.582.472-.696l12.5-5c.23-.094.493-.064.699.075s.329.372.329.621v15.5c0 .249-.123.481-.329.621-.126.085-.274.129-.421.129zm-11.75-6.258 11 4.4v-13.285l-11 4.4z" data-original="#000000" class="" data-old_color="#000000" style="fill:#374957"></path></g></g><g><g><path d="m11.75 21h-3.5c-1.325 0-2.25-.822-2.25-2v-2.75c0-1.24 1.01-2.25 2.25-2.25h3.5c.414 0 .75.336.75.75v5.5c0 .414-.336.75-.75.75zm-3.5-5.5c-.413 0-.75.337-.75.75v2.75c0 .413.408.5.75.5h2.75v-4z" data-original="#000000" class="" data-old_color="#000000" style="fill:#374957"></path></g></g><g><g><path d="m13.75 28h-3c-.373 0-.689-.274-.742-.644l-1-7 1.484-.213.908 6.357h1.511l-.637-5.676 1.49-.168.73 6.51c.024.213-.044.425-.186.584-.141.159-.344.25-.558.25z" data-original="#000000" class="" data-old_color="#000000" style="fill:#374957"></path></g></g><g><g><path d="m26.399 13h3.202v1.501h-3.202z" transform="matrix(.781 -.625 .625 .781 -2.454 20.505)" data-original="#000000" class="" data-old_color="#000000" style="fill:#374957"></path></g></g><g><g><path d="m27.25 20.649h1.501v3.202h-1.501z" transform="matrix(.625 -.781 .781 .625 -6.866 30.215)" data-original="#000000" class="" data-old_color="#000000" style="fill:#374957"></path></g></g><g><g><path d="m26.75 17.25h2.5v1.5h-2.5z" data-original="#000000" class="" data-old_color="#000000" style="fill:#374957"></path></g></g></g></g></svg>