<svg xmlns="http://www.w3.org/2000/svg" xmlns:xlink="http://www.w3.org/1999/xlink" id="Capa_1" x="0px" y="0px" viewBox="0 0 513.122 513.122" style="enable-background:new 0 0 513.122 513.122;" xml:space="preserve"> <g> <path style="fill:#FFD15C;" d="M299.228,158.164c0,0,6.4-21.333,59.733-16c0,0,30.933-26.667,66.133-11.733l19.2,3.2 c0,0,0-24.533-2.133-45.867c-1.067-21.333-16-46.933-16-46.933s-5.333,7.467-14.933,7.467c-8.533,0-11.733,1.067-14.933,4.267 c-3.2,2.133-13.867,3.2-17.067,1.067c-3.2-2.133-2.133-6.4,1.067-9.6c0,0-10.667-1.067-9.6-12.8s9.6-23.467,12.8-23.467 c0,0,3.2-8.533,11.733-5.333c0,0,6.4-3.2,11.733,0c0,0,18.133,3.2,25.6,6.4s12.8,7.467,17.067,18.133 c4.267,10.667,23.467,32,34.133,45.867c10.667,13.867,18.133,34.133,21.333,52.267c3.2,18.133,5.333,23.467,7.467,28.8 c2.133,5.333-2.133,13.867-7.467,16c-5.333,2.133-35.2,12.8-52.267,23.467c-17.067,9.6-33.067,14.933-46.933,14.933 s-66.133,9.6-66.133,9.6L299.228,158.164z"></path> <path style="fill:#FFD15C;" d="M213.894,158.164c0,0-6.4-21.333-59.733-16c0,0-30.933-26.667-66.133-11.733l-19.2,3.2 c0,0,0-24.533,2.133-45.867s16-46.933,16-46.933s5.333,7.467,14.933,7.467s11.733,1.067,14.933,4.267 c3.2,2.133,13.867,3.2,17.067,1.067c3.2-2.133,2.133-6.4-1.067-9.6c0,0,10.667-1.067,9.6-12.8 c-1.067-11.733-9.6-23.467-12.8-23.467c0,0-3.2-8.533-11.733-5.333c0,0-6.4-3.2-11.733,0c0,0-18.133,3.2-25.6,6.4 c-7.467,3.2-12.8,7.467-17.067,18.133c-4.267,10.667-23.467,32-34.133,45.867s-18.133,34.133-21.333,52.267 s-5.333,23.467-7.467,28.8s2.133,13.867,7.467,16s35.2,12.8,52.267,23.467c17.067,9.6,33.067,14.933,46.933,14.933 s69.333,9.6,69.333,9.6L213.894,158.164z"></path> </g> <path style="fill:#415A6B;" d="M250.161,512.297c-1.067-19.2-4.267-46.933-4.267-46.933s-3.2,17.067-5.333,27.733 c-1.067,3.2-2.133,10.667-4.267,18.133h-58.667c0-4.267,1.067-6.4,1.067-8.533c-13.867-50.133-11.733-128-11.733-128l53.333-87.467 l78.933-10.667c0,0,19.2,81.067,23.467,128c4.267,39.467-3.2,86.4-7.467,106.667h-65.067V512.297z"></path> <g> <path style="fill:#FFD15C;" d="M214.961,77.097c0,0,4.267,12.8,4.267,27.733s-1.067,14.933-1.067,14.933l51.2,16l-3.2-18.133 l1.067-18.133c0,0,11.733-11.733,10.667-38.4c-1.067-26.667,0-27.733,0-27.733s0-18.133-14.933-22.4 c-14.933-4.267-38.4,1.067-42.667,6.4C214.961,23.764,210.694,65.364,214.961,77.097z"></path> <path style="fill:#FFD15C;" d="M205.361,69.63c2.133,6.4,6.4,10.667,10.667,9.6c3.2-1.067,4.267-6.4,2.133-12.8 c-2.133-6.4-6.4-10.667-10.667-9.6C204.294,56.83,203.228,63.23,205.361,69.63z"></path> <path style="fill:#FFD15C;" d="M281.094,66.43c-1.067,6.4-4.267,11.733-7.467,11.733c-3.2,0-6.4-5.333-5.333-12.8 c1.067-7.467,4.267-11.733,7.467-11.733C278.961,53.63,282.161,58.964,281.094,66.43z"></path> </g> <path style="fill:#415A6B;" d="M209.628,23.764c4.267-9.6,19.2-20.267,28.8-22.4c9.6-2.133,27.733,2.133,34.133,11.733 c6.4,9.6,8.533,32,7.467,38.4c-1.067,4.267-2.133,11.733-2.133,12.8h-1.067c0-2.133,1.067-13.867,0-18.133 c-2.133-4.267-4.267-10.667-4.267-14.933s-2.133-9.6-8.533-11.733c-7.467-3.2-35.2,0-39.467,2.133 c-3.2,2.133-5.333,7.467-4.267,11.733c0,4.267-4.267,11.733-5.333,14.933c-1.067,3.2,0,16,0,16h-2.133c0,0-3.2-5.333-4.267-10.667 C208.561,49.364,205.361,33.364,209.628,23.764z"></path> <path style="fill:#F7B64C;" d="M242.694,103.764c16,5.333,25.6-4.267,25.6-4.267l-2.133,18.133l2.133,8.533 c-40.533-12.8-50.133-39.467-50.133-39.467S226.694,97.364,242.694,103.764z"></path> <polygon style="fill:#CED6E0;" points="256.561,121.897 255.494,121.897 217.094,127.23 265.094,249.897 282.161,209.364 280.028,136.83 270.428,125.097 "></polygon> <g> <path style="fill:#F3705A;" d="M249.094,160.297l13.867,61.867h19.2l3.2-10.667c0,0-5.333-43.733-8.533-54.4 c-3.2-10.667-9.6-19.2-9.6-19.2l-10.667-7.467c0,0,0,1.067-1.067,6.4C255.494,142.164,249.094,160.297,249.094,160.297z"></path> <path style="fill:#F3705A;" d="M246.961,126.164c0,0,7.467,4.267,9.6,10.667c3.2-2.133,6.4-2.133,10.667,0l2.133-13.867 l-11.733-1.067h-2.133L246.961,126.164z"></path> </g> <ellipse style="fill:#415A6B;" cx="314.161" cy="223.23" rx="18.133" ry="21.333"></ellipse> <g> <path style="fill:#344A5E;" d="M281.094,134.697c0,0,2.133,1.067,9.6,4.267s21.333,4.267,26.667,11.733s8.533,32,3.2,53.333 c-5.333,21.333-12.8,62.933-4.267,104.533s11.733,100.267,11.733,100.267s-13.867,6.4-21.333-10.667S282.161,287.23,282.161,287.23 s-4.267-55.467-1.067-76.8s-2.133-68.267-3.2-72.533C277.894,133.63,281.094,134.697,281.094,134.697z"></path> <path style="fill:#344A5E;" d="M202.161,119.764c0,0-9.6,7.467-19.2,8.533c-9.6,0-25.6,2.133-28.8,14.933 c-3.2,12.8,4.267,51.2,7.467,64s20.267,55.467,16,96s-20.267,97.067-20.267,97.067s53.333,6.4,76.8,5.333 c24.533-1.067,35.2-10.667,39.467-21.333c4.267-10.667,13.867-74.667,12.8-89.6c-1.067-13.867-2.133-19.2-2.133-19.2 s-12.8-61.867-27.733-100.267c-14.933-38.4-43.733-59.733-43.733-59.733L202.161,119.764z"></path> </g> <g> <path style="fill:#F3F3F3;" d="M219.228,100.564c0,0,5.333,5.333,11.733,7.467c6.4,2.133,24.533,13.867,24.533,13.867l-16,19.2 l-25.6-28.8L219.228,100.564z"></path> <path style="fill:#F3F3F3;" d="M256.561,121.897L256.561,121.897c6.4,5.333,11.733,11.733,16,19.2l1.067,1.067 c0,0-2.133-14.933-2.133-21.333c-1.067-6.4-3.2-12.8-3.2-12.8S262.961,118.697,256.561,121.897z"></path> </g> <g> <path style="fill:#415A6B;" d="M214.961,108.03c0,0,2.133,5.333,6.4,8.533s23.467,17.067,34.133,42.667 c11.733,25.6,26.667,87.467,27.733,116.267c0,0-21.333-78.933-36.267-103.467c-14.933-24.533-25.6-30.933-25.6-30.933l4.267-7.467 h-9.6c0,0-12.8-10.667-14.933-11.733c-1.067-1.067-1.067-1.067,0-2.133c1.067-1.067,5.333-5.333,7.467-7.467 C213.894,108.03,214.961,108.03,214.961,108.03z"></path> <path style="fill:#415A6B;" d="M270.428,125.097c0,0,10.667,34.133,9.6,51.2c0,16-7.467,52.267,0,78.933c0,0,6.4-38.4,9.6-49.067 c3.2-10.667,4.267-53.333,1.067-62.933l-9.6-3.2l4.267-2.133c0,0-7.467-5.333-10.667-8.533 C273.628,127.23,270.428,125.097,270.428,125.097z"></path> <path style="fill:#415A6B;" d="M267.228,239.23v33.067c0,0,6.4,0,13.867,1.067c5.333,0,11.733,1.067,17.067,1.067 c4.267,0,8.533,1.067,13.867,2.133c8.533,2.133,17.067,5.333,25.6,5.333c12.8,0,21.333-11.733,21.333-18.133s0-26.667-1.067-29.867 c-1.067-3.2-9.6-14.933-12.8-19.2s-6.4-11.733-7.467-16c-1.067-3.2-2.133-8.533-4.267-14.933c-2.133-6.4-1.067-8.533-4.267-18.133 c-3.2-8.533-12.8-16-12.8-16c5.333,7.467,8.533,32,3.2,53.333c0,2.133-1.067,4.267-1.067,6.4l0,0l3.2,25.6c0,0-1.067,0-7.467,1.067 c-4.267,0-22.4,1.067-34.133,2.133C273.628,239.23,267.228,239.23,267.228,239.23z"></path> </g> <path style="fill:#344A5E;" d="M267.228,239.23c0,0,5.333,0,12.8,0c12.8,0,29.867-1.067,34.133-2.133c1.067,0,2.133,0,3.2,0 c0,4.267,1.067,8.533,0,13.867v2.133h-2.133c0,0-22.4,2.133-36.267,3.2c-3.2,0-8.533,1.067-10.667,1.067h-1.067V239.23z"></path> <path style="fill:#FFD15C;" d="M332.294,232.83c0,0-5.333,6.4-17.067,4.267l-18.133-14.933l4.267-12.8 c0,0,10.667,1.067,20.267,11.733C331.228,231.764,332.294,232.83,332.294,232.83z"></path> <path id="SVGCleanerId_0" style="fill:#415A6B;" d="M155.228,172.03c4.267,26.667,17.067,50.133,36.267,68.267 c1.067,1.067,2.133,2.133,3.2,3.2c8.533,6.4,22.4,7.467,24.533,8.533c2.133,1.067,8.533,0,11.733,0c3.2,0,4.267,2.133,9.6,2.133 c5.333,0,20.267,0,27.733,0c2.133,0,5.333,0,10.667-1.067c13.867-1.067,36.267-3.2,36.267-3.2 c1.067-35.2-14.933-40.533-14.933-40.533s-16-2.133-23.467-1.067c-2.133,0-5.333,0-10.667-1.067c-12.8-1.067-32-3.2-35.2-4.267 c-4.267-1.067-5.333,0-7.467,1.067s-1.067,2.133-2.133-2.133c0-4.267-1.067,0-2.133-4.267c-1.067-3.2-5.333-13.867-12.8-27.733 c-6.4-13.867-18.133-30.933-30.933-38.4c-2.133-1.067-5.333-2.133-8.533-3.2l0,0c-6.4,2.133-12.8,5.333-14.933,12.8 C152.028,148.564,153.094,160.297,155.228,172.03z"></path> <g> <path id="SVGCleanerId_0_1_" style="fill:#415A6B;" d="M155.228,172.03c4.267,26.667,17.067,50.133,36.267,68.267 c1.067,1.067,2.133,2.133,3.2,3.2c8.533,6.4,22.4,7.467,24.533,8.533c2.133,1.067,8.533,0,11.733,0c3.2,0,4.267,2.133,9.6,2.133 c5.333,0,20.267,0,27.733,0c2.133,0,5.333,0,10.667-1.067c13.867-1.067,36.267-3.2,36.267-3.2 c1.067-35.2-14.933-40.533-14.933-40.533s-16-2.133-23.467-1.067c-2.133,0-5.333,0-10.667-1.067c-12.8-1.067-32-3.2-35.2-4.267 c-4.267-1.067-5.333,0-7.467,1.067s-1.067,2.133-2.133-2.133c0-4.267-1.067,0-2.133-4.267c-1.067-3.2-5.333-13.867-12.8-27.733 c-6.4-13.867-18.133-30.933-30.933-38.4c-2.133-1.067-5.333-2.133-8.533-3.2l0,0c-6.4,2.133-12.8,5.333-14.933,12.8 C152.028,148.564,153.094,160.297,155.228,172.03z"></path> </g> <g> </g> <g> </g> <g> </g> <g> </g> <g> </g> <g> </g> <g> </g> <g> </g> <g> </g> <g> </g> <g> </g> <g> </g> <g> </g> <g> </g> <g> </g> </svg>