<svg xmlns="http://www.w3.org/2000/svg" xmlns:xlink="http://www.w3.org/1999/xlink" id="Capa_1" x="0px" y="0px" viewBox="0 0 496 496" style="enable-background:new 0 0 496 496;" xml:space="preserve" width="512px" height="512px" class=""><g><path d="M496,392V56c0-13.232-10.768-24-24-24H258.792c-4.176-2.952-8.824-5.328-13.872-6.92C233.264,9.32,214.88,0,195.16,0  c-27.688,0-52.488,12.448-69.216,32H24C10.768,32,0,42.768,0,56v336c0,13.232,10.768,24,24,24h119.312L0,474.632V496h49.296  l143.992-48h109.424l143.992,48H496v-21.368L352.688,416H472C485.232,416,496,405.232,496,392z M120,91.16  C120,49.72,153.72,16,195.16,16c15.384,0,29.656,7.64,38.184,20.44l1.712,2.568l3.008,0.752C253.336,43.576,264,57.24,264,72.984  v27.464C259.272,97.696,253.856,96,248,96c-18.92,0-37.672-6.248-52.808-17.6l-11.944-8.96l-11.936,11.936  C161.88,90.808,149.336,96,136,96c-5.856,0-11.272,1.696-16,4.448V91.16z M264,128c0,5.896-3.24,11-8,13.776v-27.544  C260.76,117,264,122.104,264,128z M192,192c-26.472,0-48-21.528-48-48v-32.536c14.584-1.752,28.08-8.232,38.624-18.776l2.128-2.128  l0.84,0.632C201.336,103,220.4,110.128,240,111.672V144C240,170.472,218.472,192,192,192z M207.88,205.984L192,232.456  l-15.88-26.464C181.2,207.288,186.52,208,192,208S202.8,207.288,207.88,205.984z M128,114.224v27.544c-4.76-2.776-8-7.88-8-13.776  S123.24,117,128,114.224z M129.952,159.392c4.328,17.44,15.808,32.088,31.136,40.608H160v1.44l-44.864,8.976  c-20.648,4.128-37.08,19.272-42.864,39.528L61.392,288H232v-16h-93.76l5.512-22.064l-15.512-3.872L121.76,272H82.608l5.048-17.664  c4.136-14.464,15.856-25.28,30.616-28.232l45.768-9.152L192,263.544l27.96-46.6l34.472,6.896l3.144-15.688L224,201.448V200h-1.448  c15.472-8.488,27.144-23.064,31.504-40.608C268.808,156.552,280,143.576,280,128V80h168v256H48V80h56.752  C104.304,83.664,104,87.376,104,91.16V128C104,143.576,115.192,156.552,129.952,159.392z M184,434.24L46.704,480H29.128L184,416.648  V434.24z M296,432h-96v-16h96V432z M466.872,480h-17.576L312,434.24v-17.592L466.872,480z M24,400c-4.416,0-8-3.584-8-8V56  c0-4.416,3.584-8,8-8h90.896c-2.736,5.064-5.016,10.416-6.76,16H32v288h432V64H279.136c-1.032-5.72-3.088-11.088-5.904-16H472  c4.416,0,8,3.584,8,8v336c0,4.416-3.584,8-8,8H24z" data-original="#000000" class="active-path" style="fill:#374957" data-old_color="#000000"></path><rect x="240" y="368" width="16" height="16" data-original="#000000" class="active-path" style="fill:#374957" data-old_color="#000000"></rect><rect x="272" y="368" width="16" height="16" data-original="#000000" class="active-path" style="fill:#374957" data-old_color="#000000"></rect><rect x="208" y="368" width="16" height="16" data-original="#000000" class="active-path" style="fill:#374957" data-old_color="#000000"></rect><path style="fill:#F69600" d="M408,320H248c-13.232,0-24-10.768-24-24v-64c0-13.232,10.768-24,24-24h36.248L328,155.504  L371.752,208H408c13.232,0,24,10.768,24,24v64C432,309.232,421.232,320,408,320z" data-original="#F0BC5E" class="" data-old_color="#F0BC5E"></path><rect x="256" y="240" width="144" height="16" data-original="#000000" class="active-path" style="fill:#374957" data-old_color="#000000"></rect><rect x="256" y="272" width="112" height="16" data-original="#000000" class="active-path" style="fill:#374957" data-old_color="#000000"></rect><rect x="384" y="272" width="16" height="16" data-original="#000000" class="active-path" style="fill:#374957" data-old_color="#000000"></rect></g> </svg>