<svg xmlns="http://www.w3.org/2000/svg" preserveAspectRatio="none" height="45px" width="100%" viewBox="0 0 1600 34"><path style="fill:#E4DEE7" d="M1577.75,28.27V56h-27.56v0.005L1550.18,56h-55.64l-0.01.005V56h-55.65v0.005L1438.87,56h-55.64l-0.01.005V56h-55.65v0.005L1327.56,56h-55.64l-0.01.005L1271.9,56h-55.64l-0.01.005V56H1160.6v0.005L1160.59,56h-55.64l-0.01.005V56h-55.65v0.005L1049.28,56H993.637l-0.006.005,0-.005H937.981l-0.006.005,0-.005H882.325l0,0.005L882.314,56H826.669l0,0.005,0-.005H771.014l-0.006.005L771,56H715.358l0,0.005L715.347,56H659.7l0,0.005L659.691,56H604.046l0,0.005L604.036,56H548.391l-0.006.005,0-.005H492.735l0,0.005L492.724,56H437.079l0,0.005L437.068,56H381.423l0,0.005,0-.005H325.768l-0.006.005,0-.005H270.112l0,0.005L270.1,56H214.456l0,0.005L214.445,56H158.8l-0.005.005,0-.005H103.145l-0.006.005,0-.005H47.489l-0.005.005L47.478,56H-8.167l-0.005.005L-8.177,56H-36V28h0.006L-8.172,0,19.65,28h0.011L47.484,0,75.306,28h0.011L103.139,0l27.823,28h0.011L158.795,0l27.822,28h0.012L214.451,0l27.822,28h0.011L270.107,0l27.822,28h0.011L325.762,0l27.823,28H353.6L381.418,0,409.24,28h0.011L437.074,0,464.9,28h0.011L492.73,0l27.822,28h0.011L548.385,0l27.823,28h0.011L604.041,0l27.822,28h0.011L659.7,0l27.822,28h0.011L715.353,0l27.822,28h0.011L771.008,0l27.823,28h0.011L826.664,0l27.822,28H854.5L882.32,0l27.822,28h0.011L937.975,0,965.8,28h0.011L993.631,0l27.819,28h0.01l27.83-28,27.82,28h0.01l27.82-28,27.83,28h0.01L1160.6,0l27.82,28h0.01l27.82-28,27.83,28h0.01l27.82-28,27.82,28h0.01l27.83-28,27.82,28h0.01l27.82-28,27.82,28h0.01l27.83-28,27.82,28h0.01l27.82-28,27.83,28h0.01l27.82-28,27.82,28Z"></path><path style="fill:#F5F0F7" d="M1605.75,28.27V56h-27.56v0.005L1578.18,56h-55.64l-0.01.005V56h-55.65v0.005L1466.87,56h-55.64l-0.01.005V56h-55.65v0.005L1355.56,56h-55.64l-0.01.005L1299.9,56h-55.64l-0.01.005V56H1188.6v0.005L1188.59,56h-55.64l-0.01.005V56h-55.65v0.005L1077.28,56h-55.64l-0.01.005V56H965.981l-0.006.005,0-.005H910.325l0,0.005L910.314,56H854.669l0,0.005,0-.005H799.014l-0.006.005L799,56H743.358l0,0.005L743.347,56H687.7l0,0.005L687.691,56H632.046l0,0.005L632.036,56H576.391l-0.006.005,0-.005H520.735l0,0.005L520.724,56H465.079l0,0.005L465.068,56H409.423l0,0.005,0-.005H353.768l-0.006.005,0-.005H298.112l0,0.005L298.1,56H242.456l0,0.005L242.445,56H186.8l-0.005.005,0-.005H131.145l-0.006.005L131.134,56H75.489l-0.005.005L75.478,56H19.833l-0.005.005L19.823,56H-8V28h0.006L19.828,0,47.65,28h0.011L75.484,0l27.822,28h0.011L131.139,0l27.823,28h0.011L186.8,0l27.822,28h0.012L242.451,0l27.822,28h0.011L298.107,0l27.822,28h0.011L353.762,0l27.823,28H381.6L409.418,0,437.24,28h0.011L465.074,0,492.9,28h0.011L520.73,0l27.822,28h0.011L576.385,0l27.823,28h0.011L632.041,0l27.822,28h0.011L687.7,0l27.822,28h0.011L743.353,0l27.822,28h0.011L799.008,0l27.823,28h0.011L854.664,0l27.822,28H882.5L910.32,0l27.822,28h0.011L965.975,0,993.8,28h0.011L1021.63,0l27.82,28h0.01l27.83-28,27.82,28h0.01l27.82-28,27.83,28h0.01L1188.6,0l27.82,28h0.01l27.82-28,27.83,28h0.01l27.82-28,27.82,28h0.01l27.83-28,27.82,28h0.01l27.82-28,27.82,28h0.01l27.83-28,27.82,28h0.01l27.82-28,27.83,28h0.01l27.82-28,27.82,28Z"></path></svg>