<svg xmlns="http://www.w3.org/2000/svg" width="1784" height="633" fill="none"><path d="M221.547 335.841v99.812l86.439-49.906a29.154 29.154 0 0014.568-25.244v-99.812l-86.438 49.906a29.154 29.154 0 00-14.569 25.244z" fill="#4E7FFF"></path><path d="M316.746 250.556l-86.439-49.906a29.152 29.152 0 00-29.148 0l-86.449 49.906 86.449 49.906a29.157 29.157 0 0029.148 0l86.439-49.906z" stroke="#E1E1E1" stroke-width="2"></path><path d="M574.137 385.736l86.438 49.906V335.82a29.14 29.14 0 00-14.568-25.234l-86.439-49.906v99.823c0 10.4 5.554 20.017 14.569 25.233z" fill="#4AC93F"></path><path d="M672.256 335.841v99.812l86.449-49.906a29.155 29.155 0 0014.569-25.244v-99.812l-86.449 49.906a29.154 29.154 0 00-14.569 25.244zm95.189-85.285l-86.439-49.906a29.152 29.152 0 00-29.148 0l-86.439 49.906 86.449 49.906a29.157 29.157 0 0029.148 0l86.429-49.906zm257.405 135.181l86.43 49.906V335.82a29.138 29.138 0 00-14.56-25.233l-86.44-49.917v99.823c0 10.41 5.55 20.028 14.57 25.244zm98.1-49.896v99.812l86.45-49.906a29.144 29.144 0 0014.57-25.244v-99.812l-86.44 49.906a29.154 29.154 0 00-14.58 25.244zm95.2-85.285l-86.45-49.906a29.118 29.118 0 00-29.13 0l-86.44 49.906 86.45 49.906a29.123 29.123 0 0029.13 0l86.44-49.906zM348.782 385.737l86.449 49.906V335.82a29.137 29.137 0 00-14.568-25.233l-86.45-49.917v99.823a29.17 29.17 0 0014.569 25.244zm98.119-49.896v99.812l86.45-49.906a29.154 29.154 0 0014.568-25.244v-99.812l-86.449 49.906a29.157 29.157 0 00-14.569 25.244zm95.2-85.285l-86.45-49.906a29.152 29.152 0 00-29.148 0l-86.439 49.906 86.45 49.906a29.157 29.157 0 0029.148 0l86.439-49.906zm257.39 135.181l86.45 49.906V335.82a29.138 29.138 0 00-14.569-25.233l-86.449-49.917v99.823a29.169 29.169 0 0014.568 25.244z" stroke="#E1E1E1" stroke-width="2"></path><path d="M897.61 335.841v99.812l86.45-49.906a29.154 29.154 0 0014.568-25.244v-99.812l-86.449 49.906a29.157 29.157 0 00-14.569 25.244z" fill="#FFC700"></path><path d="M992.799 250.556l-86.45-49.906a29.152 29.152 0 00-29.148 0l-86.428 49.906 86.45 49.906a29.157 29.157 0 0029.148 0l86.428-49.906zm257.391 135.18l86.45 49.906V335.82a29.15 29.15 0 00-14.57-25.234l-86.45-49.906v99.823c0 10.4 5.56 20.017 14.57 25.233zm98.12-49.895v99.812l86.45-49.906a29.165 29.165 0 0014.57-25.244v-99.812l-86.45 49.906a29.145 29.145 0 00-14.57 25.244zm95.2-85.285l-86.45-49.906a29.137 29.137 0 00-29.14 0l-86.45 49.906 86.45 49.906a29.142 29.142 0 0029.14 0l86.45-49.906z" stroke="#E1E1E1" stroke-width="2"></path><path d="M1475.54 385.736l86.45 49.906V335.82a29.117 29.117 0 00-14.58-25.234l-86.43-49.906v99.823c0 10.4 5.55 20.017 14.56 25.233z" fill="#4AC93F"></path><path d="M1668.86 250.556l-86.45-49.906a29.156 29.156 0 00-29.15 0l-86.43 49.906 86.43 49.906a29.16 29.16 0 0029.15 0l86.45-49.906z" stroke="#E1E1E1" stroke-width="2"></path><path d="M334.224 140.386v99.823l86.449-49.906a29.138 29.138 0 0014.569-25.234V65.236l-86.449 49.906a29.155 29.155 0 00-14.569 25.244z" fill="#4AC93F"></path><path d="M784.933 140.386v99.823l86.449-49.906a29.138 29.138 0 0014.569-25.234V65.236l-86.449 49.906a29.155 29.155 0 00-14.569 25.244z" fill="#4E7FFF"></path><path d="M1137.51 190.281l86.45 49.906v-99.812c0-10.41-5.55-20.038-14.57-25.244l-86.45-49.906v99.823a29.16 29.16 0 0014.57 25.233z" fill="#FFC700"></path><path d="M1244.38 105.017l86.45-49.906-86.45-49.906a29.14 29.14 0 00-29.14 0l-86.45 49.906 86.45 49.906a29.142 29.142 0 0029.14 0zm-782.921 85.264l86.45 49.906v-99.812a29.155 29.155 0 00-14.569-25.244l-86.449-49.917v99.823a29.156 29.156 0 0014.568 25.244zm98.12-49.895v99.822l86.449-49.906a29.139 29.139 0 0014.569-25.233V65.236l-86.45 49.906a29.154 29.154 0 00-14.568 25.244zm-450.709 0v99.822l86.45-49.906a29.138 29.138 0 0014.568-25.233V65.236l-86.449 49.906a29.155 29.155 0 00-14.569 25.244zm803.298 49.895l86.45 49.906v-99.812a29.155 29.155 0 00-14.569-25.244L897.6 65.214v99.823a29.156 29.156 0 0014.568 25.244zm450.702 0l86.45 49.906v-99.812a29.165 29.165 0 00-14.57-25.244l-86.45-49.906v99.823a29.14 29.14 0 0014.57 25.233zm225.34 0l86.45 49.906v-99.812a29.144 29.144 0 00-14.57-25.244l-86.45-49.906v99.823c0 10.4 5.56 20.027 14.57 25.233zm-127.22-49.895v99.823l86.45-49.906a29.14 29.14 0 0014.56-25.234V65.236l-86.45 49.906a29.155 29.155 0 00-14.56 25.244zM334.224 531.297v99.822l86.449-49.906a29.137 29.137 0 0014.569-25.233v-99.823l-86.449 49.906a29.127 29.127 0 00-14.569 25.234zm95.199-85.286l-86.449-49.906a29.157 29.157 0 00-29.148 0l-86.439 49.906 86.439 49.906a29.157 29.157 0 0029.148 0l86.449-49.906zm-225.354 0l-86.45-49.906a29.156 29.156 0 00-29.147 0l-86.44 49.906 86.44 49.906a29.156 29.156 0 0029.147 0l86.45-49.906zm554.615 60.031l-86.439-49.917v99.823a29.157 29.157 0 0014.569 25.244l86.449 49.906v-99.823a29.124 29.124 0 00-14.579-25.233zm26.249 25.254v99.823l86.449-49.906a29.138 29.138 0 0014.569-25.234v-99.822l-86.449 49.906a29.125 29.125 0 00-14.569 25.233zm95.189-85.285l-86.45-49.906a29.152 29.152 0 00-29.148 0l-86.449 49.906 86.449 49.906a29.157 29.157 0 0029.148 0l86.45-49.906zm329.268 60.031l-86.45-49.917v99.823a29.166 29.166 0 0014.57 25.244l86.45 49.906v-99.823a29.126 29.126 0 00-14.57-25.233z" stroke="#E1E1E1" stroke-width="2"></path><path d="M1235.63 531.296v99.823l86.45-49.906a29.15 29.15 0 0014.57-25.234v-99.822l-86.44 49.906a29.123 29.123 0 00-14.58 25.233z" fill="#4E7FFF"></path><path d="M1330.83 446.011l-86.45-49.906a29.137 29.137 0 00-29.14 0l-86.45 49.906 86.45 49.906a29.142 29.142 0 0029.14 0l86.45-49.906z" stroke="#E1E1E1" stroke-width="2"></path><path d="M533.329 506.042l-86.438-49.917v99.823a29.156 29.156 0 0014.568 25.244l86.45 49.906v-99.823a29.125 29.125 0 00-14.58-25.233z" fill="#FFC700"></path><path d="M654.778 446.011l-86.45-49.906a29.152 29.152 0 00-29.148 0l-86.449 49.906 86.449 49.906a29.157 29.157 0 0029.148 0l86.45-49.906zm329.26 60.031L897.6 456.125v99.823a29.156 29.156 0 0014.568 25.244l86.45 49.906v-99.823a29.125 29.125 0 00-14.58-25.233zm26.252 25.254v99.823l86.45-49.906a29.15 29.15 0 0014.57-25.234v-99.822l-86.45 49.906a29.114 29.114 0 00-14.57 25.233zm95.19-85.285l-86.45-49.906a29.157 29.157 0 00-29.151 0l-86.45 49.906 86.45 49.906a29.162 29.162 0 0029.151 0l86.45-49.906zm329.27 60.031l-86.45-49.906v99.823c0 10.41 5.55 20.038 14.57 25.243l86.45 49.906v-99.822a29.153 29.153 0 00-14.57-25.244zm225.34 0l-86.45-49.906v99.823c0 10.41 5.56 20.038 14.57 25.243l86.45 49.906v-99.822a29.132 29.132 0 00-14.57-25.244zm-199.1 25.254v99.823l86.45-49.906a29.14 29.14 0 0014.56-25.234v-99.822l-86.45 49.906c-9.01 5.195-14.56 14.822-14.56 25.233zm95.19-85.285l-86.44-49.906a29.16 29.16 0 00-29.15 0l-86.44 49.906 86.44 49.906a29.16 29.16 0 0029.15 0l86.44-49.906zm225.33 0l-86.45-49.906a29.16 29.16 0 00-29.15 0l-86.44 49.906 86.44 49.906a29.16 29.16 0 0029.15 0l86.45-49.906z" stroke="#E1E1E1" stroke-width="2"></path></svg>