<svg xmlns="http://www.w3.org/2000/svg" xmlns:xlink="http://www.w3.org/1999/xlink" id="Layer_1" x="0px" y="0px" viewBox="0 0 2120 650" style="enable-background:new 0 0 2120 650;" xml:space="preserve"><style type="text/css">	.st0{display:none;opacity:2.000000e-02;fill:none;stroke:#212121;stroke-width:400;stroke-miterlimit:10;}	.st1{opacity:2.000000e-02;fill:#FCF0F8;stroke:#000000;stroke-width:550;stroke-miterlimit:10;enable-background:new    ;}	.st2{opacity:0.13;fill:none;stroke:#E1BEE7;stroke-width:7.4911;stroke-miterlimit:10;enable-background:new    ;}	.st3{opacity:7.000000e-02;fill:#E1BEE7;stroke:#E8B2EA;stroke-width:0.75;stroke-miterlimit:10;enable-background:new    ;}	.st4{opacity:0.1;}	.st5{fill:none;stroke:#E8B2EA;stroke-width:7;stroke-linecap:round;stroke-miterlimit:10;}	.st6{display:none;}	.st7{display:inline;opacity:0.1;fill:none;stroke:#E1BEE7;stroke-width:1.96;stroke-miterlimit:10;enable-background:new    ;}	.st8{display:inline;opacity:0.13;fill:none;stroke:#E1BEE7;stroke-width:1.42;stroke-miterlimit:10;enable-background:new    ;}			.st9{display:inline;opacity:7.000000e-02;fill:none;stroke:#E1BEE7;stroke-width:1.82;stroke-miterlimit:10;enable-background:new    ;}	.st10{display:inline;opacity:5.000000e-02;fill:#E1BEE7;enable-background:new    ;}	.st11{display:inline;opacity:0.1;}	.st12{fill:none;stroke:#E8B2EA;stroke-width:6;stroke-linecap:round;stroke-miterlimit:10;}	.st13{opacity:0.1;fill:none;stroke:#E1BEE7;stroke-width:7.41;stroke-miterlimit:10;enable-background:new    ;}	.st14{opacity:0.12;fill:#E1BEE7;enable-background:new    ;}	.st15{opacity:0.15;}	.st16{fill:none;stroke:#E8B2EA;stroke-width:2.66;stroke-linecap:round;stroke-miterlimit:10;}	.st17{fill:#F5F0F7;}	.st18{fill:#80C56E;}	.st19{fill:#66AD66;}	.st20{fill:#C4C9F2;}	.st21{fill:#B0B8EA;}	.st22{fill:#4D984E;}	.st23{fill:#A7AEEE;}	.st24{fill:#FEC37D;stroke:#3B0859;stroke-width:2.2914;stroke-miterlimit:10;}	.st25{fill:#F9AE5D;}	.st26{fill:#F2A559;stroke:#3B0859;stroke-width:1.5221;stroke-miterlimit:10;}	.st27{fill:#F2A559;}	.st28{fill:#EA8F3D;}	.st29{fill:#8C99E5;}	.st30{fill:#3B0859;}	.st31{opacity:0.74;fill:#DFD3EA;enable-background:new    ;}	.st32{fill:#FEFEFE;}	.st33{fill:#FAE3D5;}	.st34{fill:#BD8270;}	.st35{fill:#FEDCC3;}	.st36{fill:#C88F7F;}	.st37{fill:#C88F7E;}	.st38{fill:#AC3EAF;}	.st39{fill:#F8FAF8;}	.st40{fill:#FAE2D4;}	.st41{fill:#F4D9F4;}	.st42{fill:#E99EEF;}	.st43{fill:#F8F9F8;}	.st44{fill:#FAD8C0;}	.st45{fill:#FBE8DB;}	.st46{fill:#F0EFEE;}	.st47{fill:#E0D1CC;}	.st48{fill:#F0DDD4;}	.st49{fill:#F3EFEF;}	.st50{fill:#B78D86;}	.st51{fill:#EFF7F7;}	.st52{fill:#E6E5E9;}	.st53{fill:#F4B3B3;}	.st54{fill:#EF9F9F;}	.st55{fill:url(#SVGID_1_);}	.st56{fill:#FFFFFF;}	.st57{fill:#F6E7F7;stroke:#6D0F6D;stroke-width:1.3318;stroke-linecap:round;stroke-linejoin:round;}	.st58{fill:none;stroke:#6D0F6D;stroke-width:1.3318;stroke-linecap:round;stroke-linejoin:round;}	.st59{fill:none;stroke:#932F96;stroke-width:1.3318;stroke-linecap:round;stroke-linejoin:round;}	.st60{fill:#6D0F6D;}	.st61{fill:#E99EEF;stroke:#6B1972;stroke-width:3.3089;stroke-miterlimit:10;}	.st62{fill:none;stroke:#6B1972;stroke-width:3.6729;stroke-linecap:round;stroke-miterlimit:10;}	.st63{fill:none;stroke:#6B1972;stroke-width:3.6729;stroke-linecap:round;stroke-miterlimit:10;stroke-dasharray:9.1491,12.1933;}	.st64{fill:#6B1972;}	.st65{fill:none;stroke:#6B1972;stroke-width:3.4082;stroke-linecap:round;stroke-linejoin:round;}	.st66{fill:none;stroke:#6B1972;stroke-width:2.5727;stroke-linecap:round;stroke-linejoin:round;}	.st67{fill:#6B1972;stroke:#6B1972;stroke-width:0.8851;stroke-miterlimit:10;}	.st68{fill:#6B1972;stroke:#6B1972;stroke-width:0.9099;stroke-miterlimit:10;}	.st69{fill:url(#SVGID_2_);}	.st70{clip-path:url(#SVGID_4_);}	.st71{fill:#BDC3C7;}	.st72{fill:#F0C419;}	.st73{fill:#EDE21B;}	.st74{fill:#F6E7F7;}	.st75{fill:#892289;stroke:#892289;stroke-width:0.3971;stroke-miterlimit:10;}	.st76{fill:#892289;}	.st77{fill:#892289;stroke:#892289;stroke-width:0.2316;stroke-miterlimit:10;}	.st78{fill:none;}	.st79{fill:none;stroke:#3B0859;stroke-width:3.8135;stroke-linecap:round;stroke-miterlimit:10;}</style><title>raychat-bg-white</title><path id="rectange" class="st0" d="M2062.1-215.3l-150.9,659.6c0,0.1-0.2,0.2-0.3,0.2l-659.6-150.9c-0.1,0-0.2-0.2-0.2-0.3  l150.9-659.6c0-0.1,0.2-0.2,0.3-0.2L2062-215.6C2062.1-215.6,2062.2-215.5,2062.1-215.3z"></path><circle id="Shadow-circle" class="st1" cx="1617.8" cy="-14.8" r="385.7"></circle><g>	<polygon class="st2" points="1032.3,172.2 988,158.4 1022.1,127  "></polygon>	<path class="st3" d="M1051,113.1l0.1-0.6c0.5-2.8,3.1-4.7,5.9-4.2l0.6,0.1c2.8,0.5,4.7,3.1,4.2,5.9l-0.1,0.6   c-0.5,2.8-3.1,4.7-5.9,4.2l-0.6-0.1C1052.4,118.6,1050.6,115.9,1051,113.1z"></path>	<g class="st4">		<line class="st5" x1="1003" y1="92.8" x2="993.2" y2="106.7"></line>		<line class="st5" x1="991.2" y1="94.9" x2="1005" y2="104.7"></line>	</g></g><g class="st6">	<circle class="st7" cx="1421.7" cy="607.3" r="3.7"></circle>	<polygon class="st8" points="1403.3,633 1406.5,639.9 1399,639.3  "></polygon>			<rect x="1384.3" y="582.7" transform="matrix(0.6456 -0.7637 0.7637 0.6456 44.3253 1267.3899)" class="st9" width="6.7" height="6.5"></rect>	<path class="st10" d="M1367.7,618.5h1.5c1.4,0,2.5,1.1,2.5,2.5v1.5c0,1.4-1.1,2.5-2.5,2.5h-1.5c-1.4,0-2.5-1.1-2.5-2.5v-1.5   C1365.2,619.6,1366.3,618.5,1367.7,618.5z"></path>	<g class="st11">		<line class="st12" x1="1404.4" y1="600.9" x2="1387.4" y2="630.8"></line>		<line class="st12" x1="1380.9" y1="607.4" x2="1410.8" y2="624.4"></line>	</g></g><g>			<rect x="1791.7" y="400.2" transform="matrix(0.3037 -0.9528 0.9528 0.3037 862.4802 2012.3619)" class="st13" width="32.6" height="31.8"></rect>	<path class="st14" d="M1854.1,402.3h0.5c2.2,0,4.1,1.8,4.1,4v0.5c0,2.2-1.8,4-4.1,4h-0.5c-2.2,0-4.1-1.8-4.1-4v-0.5   C1850,404.1,1851.8,402.3,1854.1,402.3z"></path>	<path class="st14" d="M1787.3,443h0.8c1,0,1.7,0.8,1.7,1.7v0.8c0,1-0.8,1.7-1.7,1.7h-0.8c-1,0-1.7-0.8-1.7-1.7v-0.8   C1785.6,443.8,1786.4,443,1787.3,443z"></path>	<g class="st15">		<line class="st16" x1="1777.7" y1="389.6" x2="1772" y2="397.8"></line>		<line class="st16" x1="1770.8" y1="390.8" x2="1778.9" y2="396.6"></line>	</g></g><g>	<g id="bricks">		<path class="st17" d="M1019.8,452.5h40.2c0.8,0,1.5,0.7,1.5,1.5v17.6c0,0.8-0.7,1.5-1.5,1.5h-40.2c-0.8,0-1.5-0.7-1.5-1.5v-17.6    C1018.3,453.2,1019,452.5,1019.8,452.5z"></path>		<path class="st17" d="M953.9,392.5h33.4c0.8,0,1.5,0.7,1.5,1.5v17.6c0,0.8-0.7,1.5-1.5,1.5h-33.4c-0.8,0-1.5-0.7-1.5-1.5v-17.6    C952.4,393.2,953.1,392.5,953.9,392.5z"></path>		<path class="st17" d="M994.3,392.5h40.2c0.8,0,1.5,0.7,1.5,1.5v17.6c0,0.8-0.7,1.5-1.5,1.5h-40.2c-0.8,0-1.5-0.7-1.5-1.5v-17.6    C992.7,393.2,993.4,392.5,994.3,392.5z"></path>		<path class="st17" d="M970.6,367.9h40.2c0.8,0,1.5,0.7,1.5,1.5v17.6c0,0.8-0.7,1.5-1.5,1.5h-40.2c-0.8,0-1.5-0.7-1.5-1.5v-17.6    C969.1,368.6,969.8,367.9,970.6,367.9z"></path>		<path class="st17" d="M911.6,246.9h40.2c0.8,0,1.5,0.7,1.5,1.5v17.6c0,0.8-0.7,1.5-1.5,1.5h-40.2c-0.8,0-1.5-0.7-1.5-1.5v-17.6    C910.1,247.6,910.8,246.9,911.6,246.9z"></path>		<path class="st17" d="M888,271.5h40.2c0.8,0,1.5,0.7,1.5,1.5v17.6c0,0.8-0.7,1.5-1.5,1.5H888c-0.8,0-1.5-0.7-1.5-1.5v-17.6    C886.5,272.2,887.2,271.5,888,271.5z"></path>		<path class="st17" d="M689.3,270.5h33.4c0.8,0,1.5,0.7,1.5,1.5v17.6c0,0.8-0.7,1.5-1.5,1.5h-33.4c-0.8,0-1.5-0.7-1.5-1.5v-17.6    C687.8,271.2,688.5,270.5,689.3,270.5z"></path>		<path class="st17" d="M729.6,270.5h40.2c0.8,0,1.5,0.7,1.5,1.5v17.6c0,0.8-0.7,1.5-1.5,1.5h-40.2c-0.8,0-1.5-0.7-1.5-1.5v-17.6    C728.1,271.2,728.8,270.5,729.6,270.5z"></path>		<path class="st17" d="M706,246h40.2c0.8,0,1.5,0.7,1.5,1.5v17.6c0,0.8-0.7,1.5-1.5,1.5H706c-0.8,0-1.5-0.7-1.5-1.5v-17.6    C704.5,246.6,705.2,246,706,246z"></path>		<path class="st17" d="M474.9,363h40.2c0.8,0,1.5,0.7,1.5,1.5v17.6c0,0.8-0.7,1.5-1.5,1.5h-40.2c-0.8,0-1.5-0.7-1.5-1.5v-17.6    C473.3,363.7,474,363,474.9,363z"></path>		<path class="st17" d="M451.3,337.4h40.2c0.8,0,1.5,0.7,1.5,1.5v17.6c0,0.8-0.7,1.5-1.5,1.5h-40.2c-0.8,0-1.5-0.7-1.5-1.5V339    C449.7,338.1,450.4,337.4,451.3,337.4z"></path>		<path class="st17" d="M427.6,363h40.2c0.8,0,1.5,0.7,1.5,1.5v17.6c0,0.8-0.7,1.5-1.5,1.5h-40.2c-0.8,0-1.5-0.7-1.5-1.5v-17.6    C426.1,363.7,426.8,363,427.6,363z"></path>		<path class="st17" d="M450.3,416.1h40.2c0.8,0,1.5,0.7,1.5,1.5v17.6c0,0.8-0.7,1.5-1.5,1.5h-40.2c-0.8,0-1.5-0.7-1.5-1.5v-17.6    C448.7,416.8,449.4,416.1,450.3,416.1z"></path>		<path class="st17" d="M497.5,416.1h40.2c0.8,0,1.5,0.7,1.5,1.5v17.6c0,0.8-0.7,1.5-1.5,1.5h-40.2c-0.8,0-1.5-0.7-1.5-1.5v-17.6    C496,416.8,496.6,416.1,497.5,416.1z"></path>		<path class="st17" d="M474.9,440.7h40.2c0.8,0,1.5,0.7,1.5,1.5v17.6c0,0.8-0.7,1.5-1.5,1.5h-40.2c-0.8,0-1.5-0.7-1.5-1.5v-17.6    C473.3,441.4,474,440.7,474.9,440.7z"></path>		<path class="st17" d="M699.1,337.4h40.2c0.8,0,1.5,0.7,1.5,1.5v17.6c0,0.8-0.7,1.5-1.5,1.5h-40.2c-0.8,0-1.5-0.7-1.5-1.5V339    C697.6,338.1,698.3,337.4,699.1,337.4z"></path>		<path class="st17" d="M651.9,337.4h40.2c0.8,0,1.5,0.7,1.5,1.5v17.6c0,0.8-0.7,1.5-1.5,1.5h-40.2c-0.8,0-1.5-0.7-1.5-1.5V339    C650.4,338.1,651.1,337.4,651.9,337.4z"></path>		<path class="st17" d="M681.4,426h40.2c0.8,0,1.5,0.7,1.5,1.5v17.6c0,0.8-0.7,1.5-1.5,1.5h-40.2c-0.8,0-1.5-0.7-1.5-1.5v-17.6    C679.9,426.7,680.6,426,681.4,426z"></path>		<path class="st17" d="M658.8,449.6H699c0.8,0,1.5,0.7,1.5,1.5v17.6c0,0.8-0.7,1.5-1.5,1.5h-40.2c-0.8,0-1.5-0.7-1.5-1.5v-17.6    C657.3,450.3,658,449.6,658.8,449.6z"></path>		<path class="st17" d="M643.1,475.2h40.2c0.8,0,1.5,0.7,1.5,1.5v17.6c0,0.8-0.7,1.5-1.5,1.5h-40.2c-0.8,0-1.5-0.7-1.5-1.5v-17.6    C641.6,475.8,642.2,475.2,643.1,475.2z"></path>		<path class="st17" d="M619.5,427h40.2c0.8,0,1.5,0.7,1.5,1.5v17.6c0,0.8-0.7,1.5-1.5,1.5h-40.2c-0.8,0-1.5-0.7-1.5-1.5v-17.6    C617.9,427.6,618.6,427,619.5,427z"></path>		<path class="st17" d="M610.6,450.6h40.2c0.8,0,1.5,0.7,1.5,1.5v17.6c0,0.8-0.7,1.5-1.5,1.5h-40.2c-0.8,0-1.5-0.7-1.5-1.5v-17.6    C609.1,451.3,609.8,450.6,610.6,450.6z"></path>	</g>	<path class="st18" d="M1052.3,512.1c5,0.8,6.8,0.2,6.8,0.2s1.8,0.6,6.8-0.2c4.9-0.8,4.7-8.3,4.7-8.3c-1.5,1.4-3.4,2.3-5.4,2.6   c-3.7,0.7-6.1,4.8-6.1,4.8s-2.4-4.1-6.1-4.8c-2-0.3-3.9-1.2-5.4-2.6C1047.6,503.8,1047.4,511.3,1052.3,512.1z"></path>	<path class="st19" d="M1070.6,503.8L1070.6,503.8c0,0.1-2,6.8-11.5,7.4v1.1c0.1,0,1.9,0.5,6.8-0.2   C1070.7,511.4,1070.6,503.8,1070.6,503.8z"></path>	<path class="st19" d="M1059.1,511.2c0,0-2.4-4.1-6.1-4.8c-2-0.3-3.9-1.2-5.4-2.6C1047.6,503.8,1049.5,510.6,1059.1,511.2z"></path>	<path class="st18" d="M1052.3,499.4c5,0.8,6.8,0.2,6.8,0.2s1.8,0.6,6.8-0.2c4.9-0.8,4.7-8.3,4.7-8.3c-1.5,1.4-3.4,2.3-5.4,2.6   c-3.7,0.7-6.1,4.8-6.1,4.8s-2.4-4.1-6.1-4.8c-2-0.3-3.9-1.2-5.4-2.6C1047.6,491.1,1047.4,498.6,1052.3,499.4z"></path>	<path class="st20" d="M1071.9,475.1c-1.5-1.6-10.1,1.4-12.6,3.5c-2.5,2-2.7,7.1-1.7,8.1s6.4,1.5,8.9-0.5S1073.4,476.7,1071.9,475.1   z"></path>	<path class="st21" d="M1066.5,486.2c2.5-2,6.8-9.6,5.3-11.1l-14.2,11.6C1058.7,487.8,1064.1,488.2,1066.5,486.2z"></path>	<path class="st20" d="M1046.3,475.1c1.5-1.6,10.1,1.4,12.6,3.5c2.5,2,2.7,7.1,1.7,8.1c-1.1,1.1-6.4,1.5-8.9-0.5   S1044.9,476.7,1046.3,475.1z"></path>	<path class="st21" d="M1058.9,478.6c-2.5-2-11.1-5-12.6-3.5l14.2,11.6C1061.6,485.6,1061.4,480.6,1058.9,478.6z"></path>	<path class="st19" d="M1070.6,491.1L1070.6,491.1c0,0.1-2,6.8-11.5,7.4v1.1c0.1,0,1.9,0.5,6.8-0.2   C1070.7,498.7,1070.6,491.1,1070.6,491.1z"></path>	<path class="st19" d="M1059.1,498.5c0,0-2.4-4.1-6.1-4.8c-2-0.3-3.9-1.2-5.4-2.6C1047.6,491.1,1049.5,497.9,1059.1,498.5z"></path>	<path class="st22" d="M1059.1,486.5c-0.6,0-1.1,0.5-1.1,1.1v0v39.7c0.1,0.6,0.6,1,1.2,1c0.5,0,0.9-0.5,1-1v-39.7   C1060.2,487,1059.7,486.5,1059.1,486.5z"></path>	<path class="st23" d="M1059.1,468.7c-2.5,0-6,9.2-6,12.8s4.3,7.6,6,7.6s6-4,6-7.6C1065.1,477.9,1061.6,468.7,1059.1,468.7z"></path>	<path class="st24" d="M1066.8,540.6h-15.3c-0.6,0-1.2-0.4-1.3-1.1l-4.1-20.1h26l-4.1,20.1C1068,540.2,1067.4,540.6,1066.8,540.6z"></path>	<path class="st25" d="M1064.2,519.3l-4.1,19.4c-0.1,0.6-0.7,1-1.3,1h7c0.6,0,1.2-0.4,1.3-1l4.1-19.4H1064.2z"></path>	<path class="st26" d="M1074.3,523.4h-30.6c-0.4,0-0.7-0.3-0.7-0.7v-3.9c0-0.4,0.3-0.7,0.7-0.7h30.6c0.4,0,0.7,0.3,0.7,0.7v3.9   C1075,523.1,1074.7,523.4,1074.3,523.4z"></path>	<polygon class="st27" points="1069.4,529 1049.3,529 1049.8,531 1069,531  "></polygon>	<polygon class="st28" points="1062.3,529 1061.8,531.1 1068.9,531.1 1068.9,530.7 1069.3,529  "></polygon>	<path class="st29" d="M1065.1,481.5c0-3.5-3.6-12.8-6-12.8v20.4C1060.8,489.1,1065.1,485,1065.1,481.5z"></path>	<rect x="1066.6" y="518.9" class="st28" width="7.6" height="3.8"></rect>	<path class="st30" d="M1013.5,484.3c1.4-14.5,2.6-29,4.3-43.4c0.5-4.2-0.8-5-4.6-5c-11.8,0.2-23.6-0.1-35.3,0.2   c-4.1,0.1-6.9-1.1-8.6-4.9c0.5-0.1,1.1-0.3,1.6-0.4c17.8-3.8,25.3-23.5,16.3-37.6c-1-1.7-0.4-2.7,0.2-4.1c3.6-8.8,2.4-16.8-4-23.9   c-1.2-1.3-1.9-3-1.8-4.8c0.1-9.8,0.1-19.7,0-29.5c-0.4-30.6-27.1-51.6-48.5-54.5c-26.7-3.5-56.6,20.7-59.5,47.9   c-1.2,11.8-0.4,23.6-0.5,35.3c0,2.2-0.8,4.4-2.3,6c-5.5,6.4-6.9,15.4-3.6,23.2c0.9,1.6,0.8,3.6-0.2,5.2c-8.1,14.4-1,31.5,14.8,36.3   c0.8,0.3,1.9,0.2,2.3,1c-2.1,4.1-5.5,5-9.7,4.8c-7.2-0.3-14.4-0.2-21.6,0c-2,0-3.5-0.1-4.8-1.2h-0.5l-0.6,0.5   c-1.3,1.2-2.7,2.2-4.3,3c-1.4,0.7-2.9,1.2-4.4,1.6c-0.3,0.1-0.6,0.3-0.8,0.4l-0.4,0.2c0.3,1.9,0.2,3.8-0.3,5.7l0,0   c1.7,0.3,2,1.3,2.1,2.8c1.3,13.9,4.1,41.8,4.1,41.8s2.4,25.9,3.2,36.1c0.5,6.9-4,10.8-10.8,10.8h-67.7c-6.3,0-7.3-0.2-7.3-6.5   c0-20.8-0.3-91.4-0.6-102.7c0,0,0.1-115.2,0.1-165.9c0-2,0.7-4.3-1.7-5.5c-3.1,0.8-2.3,3.4-2.3,5.5c0,65.1-0.5,248.9-0.6,269.9   c0,4.8-1.3,5.3-6.1,5.3c-13.3,0-26.6,0-39.9,0c-10.4,0-20.8,0-31.2,0c-1.6,0-2.9,0.2-4.6-1.2c-2-1.7-5.5-6.2-5.1-10.4   c1.7-16.3,3.2-31,3.2-31l4.7-42.8c0.1-1,0.2-1.9,0.4-2.9c0-0.6,0-1.3,0-2c0-0.7,0.1-1.4,0.3-2c-0.4-1.3-0.7-2.6-0.7-3.9   c0-0.2,0-0.5-0.1-0.8c0,0-0.1-0.1-0.1-0.1c-0.9-0.9-1.7-2-2.3-3.2c-0.3-0.2-0.6-0.3-0.8-0.5h-0.3c-1.1,0.4-2.3,0.4-3.4,0.1   c-1.9-0.5-3.9-0.9-5.9-1.1c-1,0.1-2,0.1-3.1,0c-3.9-0.2-7.8-0.1-11.6,0c-1.5,0-2.6-0.2-3.5-1.6c-5.9-9.2-14.7-14.4-24.8-17.7   c-4.6-1.5-9.2-3.4-13.5-5.5c-2.4-1.2-4-3.6-4.1-6.3c-0.1-2.9,1.8-3.4,3.6-4.3c16.3-9,26.9-22,28.1-41.3c0.1-1.4,0.6-2.6,1.6-3.6   c4.8-4.8,6.5-10.8,6.8-17.4c0.1-3.3-0.4-6.5-3.6-8.3c-1.7-1-1.3-2.2-1.2-3.6c0.7-8.6,1.3-17.1,1.9-25.7c0.2-1.7,0-3.3-0.6-4.9   c-6.3-15.9-17.6-26.2-34.7-27.7c-22.1-1.9-44.3-0.4-66.5-0.7c-2.3,0-3.1,1.1-3.1,3.4c-0.1,6.8,1,13.6,3.1,20   c0.7,1.8,0.6,3.8-0.4,5.4c-3.4,5.8-4.2,12.7-2.2,19.1c0.9,3.3,1.2,6.6,1.1,10c0,1.5,1.2,3.2-1,4.4c-3.3,1.9-4.1,5.1-3.9,8.6   c0.4,6.4,2.2,12.3,6.7,17c1,0.9,1.6,2.2,1.7,3.6c1.2,18.7,11.1,31.7,26.8,40.8c2,1.2,3.9,2,3.8,5.1c0,3.1-1.3,4.8-3.8,6.2   c-5.3,2.8-10.9,4.6-16.5,6.7c-8.9,3.3-16.6,8.3-21.8,16.4c-1.1,1.7-2.4,1.9-4.1,1.9c-7.6-0.1-15.3,0-22.9,0c-4.9,0-4.9,0.2-4.4,5   c1.8,17.5,3.5,35,5.3,52.5c1,9.4,1.9,18.8,2.9,28.1c0.5,4.4,2.2,9-1.7,12.8c-0.5,0.5-0.7,1.2-0.5,1.9c0.6,2.3-0.1,2.9-1.3,3.1   c0.1,0.4,0.4,1.6,0.4,1.6h52.8c19.2,0,38.5-1.7,57.7,0.8c1.4,0.2,70.9,0.6,71.9,0.4c3.5,0,7,0,10.5,0c18.4-0.1,36.9-0.5,55.3-0.5   c0.9,0,1.8,0.2,2.6,0.6c17.4,0.1,34.8,0.1,52.2,0.2c0.9-0.4,1.9-0.6,2.9-0.7h122.6c0.2,0,0.5,0,0.7,0c0.6-0.2,1.2-0.3,1.9-0.3   c15.4,0,30.8-0.2,46.2-0.4c7.4-0.1,14.8-0.1,22.3-0.1c5.4,0,23.3,0.1,28.6-1.4c-3.1,0-3.8,0-9.8-0.8h-0.1c-7.6-2.3-11.4-5.3-11-11   C1010.1,513.2,1012,498.8,1013.5,484.3z"></path>	<g id="Desk">		<path id="desk_shadow" class="st31" d="M445.2,542.1c8.9,13.8,11.8,16.7,49.2,16.7c63.5,0,195.2-0.2,195.2-0.2h145.2h269.3    l-11.8,0.2c0,0,21.4,1.4,29.5-14.7c2-3.9,3-3,3-3l-2.9,16.7l-19.7,12.8H467.9c0,0-25.6-4.9-25.6-25.6V541    C442.3,541,443.6,539.4,445.2,542.1z"></path>		<g id="desk-2">			<path class="st30" d="M1125.5,542.9c-1.9,13.6-13.4,24.8-26.4,24.8H470.8c-13,0-24.6-11.2-26.4-24.8H1125.5 M1129.6,539.1H440.3     c0,16.8,13.7,32.5,30.5,32.5h628.3C1115.9,571.6,1129.6,555.8,1129.6,539.1L1129.6,539.1z"></path>		</g>	</g>	<path class="st32" d="M583.7,440.1H661c7.1,0,11.9,5,11.2,12c-2.5,25.1-5.1,50.1-7.5,75.2c-0.2,2.5-1.2,3.2-3.6,3.2   c-49.2-0.1-98.4-0.1-147.6,0c-2.3,0-3.3-0.4-3.6-3.1c-2.8-28.3-5.6-56.5-8.6-84.7c-0.4-3.7,1.8-2.6,3.5-2.6c20.2,0,40.5,0,60.7,0   L583.7,440.1z"></path>	<path class="st32" d="M931,440.1c26.3,0,52.7,0,79,0c2.9,0,4,0.3,3.6,3.8c-3,27.9-5.8,55.9-8.5,83.9c-0.2,2.6-1.4,2.8-3.4,2.8   c-9.4-0.1-18.8,0-28.3,0c-39.5,0-79,0-118.5,0c-2.5,0-4.3,0.2-4.7-3.4c-2.4-25.8-5-51.5-7.7-77.3c-0.2-2.1-0.3-3.8,2-4.7   c0.3-0.1,0.5-0.3,0.6-0.5c2.2-5.9,7.3-4.5,11.8-4.5C881.7,440.1,906.3,440.1,931,440.1z"></path>	<path class="st33" d="M544,336.7c0-7.3,0-14.7,0-22c0-1.1,0-2.2,0.1-3.3c0.2-1.8,0.4-4,2.1-4.7c1.7-0.7,2.4,1.5,3.5,2.4   c7.6,6.7,16.5,9.9,26.5,10.6c16,1.3,31.3-2.6,46.5-7c7.3-2.1,7.3-2.1,7.4,5.5c0,15.2,1.5,30.5-0.3,45.6   c-2.6,21.7-26.8,40.4-47.6,37.4c-20.4-3-38-23.1-38.1-43.7C544,350.5,544,343.6,544,336.7z"></path>	<path class="st34" d="M934.2,280.7c20.7,3.7,44.2,24.9,43.4,52.2c-0.3,9.6,0,19.1-0.1,28.7c-0.1,2.2,0.8,4.3,2.4,5.8   c5.9,5.8,7.2,14.1,3,21.3c-1.4,2.5-0.8,4.1,0.6,6.3c4.4,6.8,4.7,14.1,0.8,21.3c-3.8,7-9.8,10.8-17.9,10.8c-1.1,0-2.4,0.1-3.2-0.4   c-6-4-13-6.1-19.3-9.6c-2.9-1.6-4-3.9-3.9-7.1c0.1-3.1,2.4-3.3,4.3-4.3c16.6-9,26.3-22.5,26.4-41.9c0.1-13.7,0-27.4,0-41.2   c0-0.8,0-1.7,0-2.5c0-1.5-0.7-2.5-2.1-2.6c-1.7-0.1-1.9,1.3-1.9,2.6c0,1.1,0,2.2,0,3.3c0,3-1.6,5.7-4.1,7.3   c-1.2,0.8-2.8,1.9-4.2,1.2s-0.5-2.5-0.7-3.8c-0.2-1.4,0.7-3.2-1-4.2c-1.9-1.2-3,0.7-4.3,1.6c-9.8,7-21.2,9.3-32.7,10.9   c-7.4,1-14.9,1.7-22.1,3.4c-4,1-7.9,2.6-11.4,4.7c-2.1-3.1-2-4.2,1.4-6.6c4.9-3.4,9.9-6.9,12.3-12.5c2.7-6.2,6.5-11.8,8.5-18.4   c3.3-10.9,9.4-19.6,20-24.6C930.2,281.4,932.2,280.9,934.2,280.7z"></path>	<path class="st35" d="M893.4,345.3c7.3-3.5,15.3-3.6,23-4.6c12.8-1.7,25.4-3.7,36.7-10.9c1.2,8.2,2.8,8.6,13.6,3.4   c-0.6,13.6,1.3,27-0.9,40.2c-2.8,16.3-20.1,31.4-36.7,32.7c-13.1,1-30.7-9.9-36.4-22.7c-2.3-8.4-0.8-17-1.2-25.6   c-0.1-2.5,0-5,0-7.4C891.5,348.4,892.2,346.7,893.4,345.3z"></path>	<path class="st34" d="M593.1,271.5c19-1.3,33.2,6.5,41,22.2c2.3,4.6,1.5,9.2,1.4,13.8c-0.1,3.2-0.6,6.4-1.5,9.5   c0-2.4-0.2-4.7,0-7.1c0.3-3.9-1.4-4.5-4.7-3.5c-6.8,2-13.5,4.2-20.3,5.8c-9.3,2.1-18.6,4.8-28.2,2.5c-3.1-0.7-6.1-1.8-8.5-4.1   c-4.4-8.4-5-17.6-5.1-26.9c0-4.4,0.9-8.9,5.4-11.3C579.4,272,586.3,272.2,593.1,271.5z"></path>	<path class="st36" d="M871,394.9c1.9-2.3,1.9-4.4,0.1-6.9c-1-1.5-2.1-3.2-1.7-5.3c0.2-6.5,2.1-12.2,7.4-16.3c1.5-1.1,1.2-3,1.3-4.6   c0.2-2.1-0.6-4.5,1.2-6.3c5.3-0.2,4.4,3.6,4.3,6.8c-0.3,19.5,8.8,33.5,25.5,42.8c4.8,2.7,5.1,8.3,0.5,11.3   c-6.3,4.3-13.6,6.7-20.4,10.2c-4.1,2.2-9-0.3-12.8-3c-2.6-1.6-4.7-3.9-6.2-6.5C868.4,409.6,868.2,402.2,871,394.9z"></path>	<path class="st37" d="M934.2,280.7c-12.8,4.6-21.4,13.3-25,26.5c-1.8,6.6-5.8,12.1-8.4,18.3c-2.4,5.8-7.3,9.6-12.5,12.8   c-2.6,1.6-3.6,3.2-2.3,6c-3,2.2-4.5,5.6-6.5,8.6c-0.7-0.5-1.1-1.3-1.1-2.1c-0.5-12.9-1.3-26,4.2-38c7.4-16.2,19.9-27.2,37.6-31.6   c0.8-0.2,2,0.3,2.4-0.9C926.6,278.5,930.4,280.2,934.2,280.7z"></path>	<path class="st38" d="M544.1,425.1c5.1-3.6,11.2-4.5,16.7-6.9c1.7-0.7,2.6,0.5,3.7,1.2c6.7,4.4,13.4,8.8,20,13.4   c2.1,1.4,3.4,1.4,5.5-0.1c6.1-4.3,12.5-8.2,18.6-12.5c2.5-1.7,4.5-1.8,7.3-0.8c7.4,2.7,14.8,5.4,20.6,11.1c1.5,1.4,2.8,3,4,4.4   c-0.3,1.3-1.1,1.1-1.7,1.1c-33.9,0-67.8,0-101.7,0c-0.4,0-0.8-0.1-1.2-0.1c-0.5-2.6,1.7-3.8,3-5.4   C540.3,428.5,542.9,427.4,544.1,425.1z"></path>	<path class="st36" d="M572.4,273.2c-3,2.9-4.5,7-4.1,11.2c0.5,8.2,0.5,16.5,4.4,24c0.4,0.8,0.6,1.5-0.4,2.1c-3.5-1.7-5.5-4.8-7.4-8   c-0.8-1.2-1.2-3.6-3.5-2.2c-2.1,1.3-0.4,3,0.3,4.3c1.9,3.7,5.1,6.4,8.6,9.9c-10.3-2.5-18.2-7.1-23.6-15.5   c-2.9-6.1-4.9-12.6-5.9-19.3c-0.9-5.4,0.4-7.2,6-7.2c7.2,0.1,14.4-0.8,21.5-0.4C569.6,272.3,571.2,271.7,572.4,273.2z"></path>	<path class="st39" d="M587.1,539.3h-74.9c-1.1,0-2.2,0-3.3,0c-1.1,0-2.1-0.9-2.1-2.1c0,0,0-0.1,0-0.1c-0.1-1.2,0.7-2.2,1.8-2.3   c0,0,0,0,0.1,0c1.2-0.1,2.5-0.2,3.7-0.2h149.3c0.7,0,1.4,0,2.1,0c1.7,0.1,3.6,0.1,3.5,2.5c-0.1,2.4-2,2.2-3.7,2.2L587.1,539.3z"></path>	<path class="st39" d="M928.1,539.3h-74.8h-3.3c-1.2,0.1-2.2-0.7-2.4-1.8c0-0.2,0-0.3,0-0.5c0-1.6,1-2.2,2.4-2.3   c1.1-0.1,2.2-0.1,3.3-0.1h149.3c1,0,1.9,0,2.9,0c1.6,0.1,2.8,0.8,2.6,2.6c-0.1,1.2-1.1,2.2-2.3,2.1c-0.1,0-0.2,0-0.3,0   c-1,0-1.9,0-2.9,0L928.1,539.3z"></path>	<path class="st40" d="M566.4,415.9c4.6-2.6,8.8-4.8,8.2-10.8c-0.1-1.4,0.8-1.5,1.9-1.2c6.6,2,13.7,2.1,20.4,0.3   c0.9-0.2,1.9-0.4,1.7,0.8c-0.8,6.4,4.1,8.4,8.7,11.2c-6.5,4.3-12.7,8.4-18.8,12.5c-1.2,0.8-2,0.4-3-0.2   C579.3,424.4,573.1,420.3,566.4,415.9z"></path>	<path class="st41" d="M917.6,426.1c3.6,0.2,7,1.2,10.7,0.9c4.4-0.3,8.7-1.9,12.3-4.6c1-0.7,1.8-1.8,3.3-1   c7.7,3.7,15.9,6.5,22.1,12.8c0.4,0.4,0.7,0.8,1.4,1.7H916C915.3,432.5,915.5,429.1,917.6,426.1z"></path>	<path class="st42" d="M917.6,426.1c-0.5,3.3-0.5,6.6-1.7,9.8h-30.4c2.4-3.2,5.5-5.7,9.1-7.5c4.5-2.3,9.3-4.3,13.8-6.6   c1.9-1,2.8,0.1,4,0.9C914.2,423.9,915.9,425,917.6,426.1z"></path>	<path class="st43" d="M922.6,280.3c1,0.4,1.7,0.7,0,1.1c-15.3,3.3-26.6,12.3-35.3,25c-5.2,7.5-6.8,16-7.6,24.7   c-0.7,7.3-0.8,14.7-0.1,22c0,0.8,0,1.7-0.1,2.5c-0.1,0.8-0.2,1.7-0.2,2.5c0.5,4.7-0.2,8.7-4.3,12c-3.9,3.1-4.7,8.1-5.4,12.9   c-1-6.5,1-12.1,6.1-16.3c1.7-1.4,1.4-2.9,1.4-4.5c0-10.5-0.1-21,0-31.6C877.3,306.6,898.9,282.9,922.6,280.3z"></path>	<path class="st44" d="M926.1,423.2c-2.5,0-5-0.6-7.3-1.5c-2.8-1.3-6.5-2.3-2.6-6.4c0.4-0.4,0.6-1,0.5-1.5c-0.9-5.3,1.9-5.3,5.8-4.2   c3.4,0.9,6.9,0.6,10.3-0.1c2.3-0.5,3.7-0.5,3.4,2.5c-0.2,1.1,0.1,2.2,0.7,3.2c3.6,4.1,0.1,5.1-2.6,6.5   C931.7,422.6,928.9,423.2,926.1,423.2z"></path>	<path class="st45" d="M893.4,345.3c-1.5,11.1-0.3,22.2-0.7,33.4c0,1.5-0.1,3-0.1,4.5c-3.5-5.1-4.6-10.8-4.8-16.8   c-0.2-4.5,0.3-9.1-0.1-13.6C887.3,348.2,889.4,346.2,893.4,345.3z"></path>	<path class="st46" d="M572.4,273.2c-9.4-0.5-18.8,0.8-28.2,0.7c-2.4,0-2.7,1.2-2.6,3.2c0.4,6.4,2.2,12.5,4.1,18.5   c0.4,1.2,1.1,2.3,0.8,3.6c-5.8-7.6-7.1-16.5-7.6-25.7c-0.1-2.5,1.7-2,3.1-2c17,0,34,0,51,0.1C586.3,273,579.3,273,572.4,273.2z"></path>	<path class="st42" d="M675.4,442.8c-3-0.3-4.8-2.1-4.7-5.1c0-2.5,2-4.5,4.5-4.5c0.2,0,0.3,0,0.4,0c2.8,0.1,4.7,1.8,4.7,4.7   C680.4,440.9,678.6,442.7,675.4,442.8z"></path>	<path class="st47" d="M634.4,350.4c-1.2-5.9,2.2-10.8,2.5-17C639.9,338.3,638.6,345.9,634.4,350.4z"></path>	<path class="st48" d="M539.9,350.3c-4.4-5.5-5.4-13.1-2.1-16.8C539,339.1,540.4,344.4,539.9,350.3z"></path>	<path class="st49" d="M871,394.9c-1.3,7.4-0.8,14.8-0.7,22.2C866.4,409.6,866.1,402.2,871,394.9z"></path>	<path class="st50" d="M542.5,301.2c0.7,0.4,1.6,1.2,0.9,1.9c-3.6,4.4-3.6,9.6-3.9,14.8c-0.5-5-2.7-9.9-0.6-14.9   C540.4,302.8,540.6,300.4,542.5,301.2z"></path>	<path class="st51" d="M544.1,425.1c0.6,2.1-1.4,2.5-2.3,3.6c-2,2.4-4.6,4.3-6,7.2c-1.1,0.1-2.1,0.4-3.5-0.4   C535.3,431.2,539.4,427.6,544.1,425.1z"></path>	<path class="st52" d="M542.5,301.2c-1.1,0.5-2,1.3-2.6,2.4c-1,1.3-0.7-0.3-1-0.5c0.3-1.5,0.9-3,1.9-4.2   C541.8,299.1,542.5,300.1,542.5,301.2z"></path>	<path class="st53" d="M933.5,383.9h-12.3l-3.3,1.7c1.1,4.1,4.9,4.8,9.5,4.8c4.6,0,8.4-0.7,9.5-4.8L933.5,383.9z"></path>	<path class="st54" d="M921.4,385c2.5,0,3.4,1.7,5.7,1.7s3.2-1.7,5.7-1.7c2.7,0,4.8-2.4,6.5-2.6c-4.4,0-5.9-3.7-12.2-0.4   c-6.2-3.4-7.1,0.4-11.4,0.4C917.3,382.6,918.7,385,921.4,385z"></path>	<path class="st30" d="M587,383c-4.7,0.1-9.4-1.1-13.5-3.4c-1.1-0.6-2.3-1.3-1.7-2.9c0.7-1.5,2-1.4,3.5-0.7c7.8,4,15.6,4,23.4,0.1   c1.3-0.6,2.7-1.4,3.5,0.4c0.8,1.8-0.5,2.5-1.8,3.1C596.3,382,591.7,383.1,587,383z"></path>	<path class="st30" d="M609.6,337.9c4,0,7.4,2.8,8,6.4c0.2,1.3,0.2,2.6-1.3,3.1c-1.5,0.5-2.2-0.5-2.5-1.9c-0.5-2.4-1.9-3.6-4.3-3.5   c-2.2,0.1-3.6,1.2-3.9,3.5c-0.2,1.4-1,2.4-2.5,2c-1.5-0.4-1.7-1.7-1.5-3C602.1,340.8,605.7,337.9,609.6,337.9z"></path>	<path class="st30" d="M564.8,337.9c4.1,0.1,7.8,3.4,7.8,7c0,1.2-0.2,2.3-1.5,2.6c-1.3,0.3-2-0.5-2.3-1.8c-0.4-2.3-1.7-3.7-4.2-3.7   s-3.8,1.3-4.1,3.7c0,1-0.9,1.9-1.9,1.8c-0.1,0-0.2,0-0.4,0c-1.5-0.3-1.7-1.5-1.7-2.9C556.9,340.9,560.7,337.8,564.8,337.9z"></path>	<path class="st30" d="M587.3,363.7c-3.1,0-6-1.6-7.7-4.3c-0.7-1-1-2.1,0.1-3c0.8-0.7,2-0.6,2.7,0.2c0.1,0.1,0.1,0.2,0.2,0.2   c3.1,3.7,6.1,3.8,9.2,0c0.6-0.9,1.8-1.2,2.7-0.6c0.1,0.1,0.2,0.1,0.2,0.2c1.1,0.8,0.8,1.9,0.1,3C593.2,362,590.3,363.6,587.3,363.7   z"></path>	<path class="st30" d="M948.1,350.3c3.9,0.1,7.3,3.2,7.2,6.6c0,1.2-0.3,2.3-1.7,2.5c-0.9,0.2-1.9-0.4-2-1.4c0-0.1,0-0.1,0-0.2   c-0.4-2.1-1.5-3.5-3.9-3.4c-2.1,0.1-3.2,1.2-3.5,3.3c-0.2,1.2-1,2.1-2.3,1.7c-1.3-0.4-1.7-1.7-1.5-3   C940.8,352.9,944.2,350.2,948.1,350.3z"></path>	<path class="st30" d="M908,350.3c2.7,0.2,5.1,2.2,6.1,5.8c0.4,1.3,0.1,2.6-1.2,3.2c-1.5,0.6-2.4-0.4-2.6-1.8   c-0.1-1.8-1.6-3.2-3.5-3.2c-0.1,0-0.1,0-0.2,0c-2.2,0-3.2,1.3-3.7,3.2c-0.3,1.2-1,2.1-2.3,1.8c-1.3-0.3-1.5-1.5-1.4-2.7   C899.2,353.1,902.8,350.1,908,350.3z"></path>	<path class="st30" d="M927.2,371.9c-2.8-0.1-5.4-1.5-7-3.8c-0.8-1.1-1.2-2.3,0.1-3.3c1-0.8,2.1-0.5,2.9,0.5c2.7,3.4,5.4,3.3,8.1,0   c0.8-1,1.9-1.3,2.9-0.5c1.3,1,0.8,2.2,0,3.3C932.6,370.5,930,371.9,927.2,371.9z"></path>			<linearGradient id="SVGID_1_" gradientUnits="userSpaceOnUse" x1="919.8562" y1="161.2344" x2="942.9688" y2="161.2344" gradientTransform="matrix(1 0 0 -1 0 650)">		<stop offset="0" style="stop-color:#D61395"></stop>		<stop offset="0.27" style="stop-color:#BB1089"></stop>		<stop offset="0.83" style="stop-color:#760769"></stop>		<stop offset="1" style="stop-color:#61045F"></stop>	</linearGradient>		<circle class="st56" cx="935.9" cy="487.1" r="1.7"></circle>	<circle class="st56" cx="931.3" cy="487.1" r="1.7"></circle>	<circle class="st56" cx="926.7" cy="487.1" r="1.7"></circle>						<circle class="st61" cx="841.7" cy="439.7" r="6.9"></circle>	<circle class="st61" cx="674.4" cy="439.7" r="6.9"></circle>	<path class="st62" d="M834.9,432.7c-1-1-2.1-2-3.1-3"></path>	<path class="st63" d="M822.4,421.9c-40-29.3-94.7-27.8-133,3.7"></path>	<path class="st62" d="M684.8,429.7c-1.1,1-2.1,2-3.1,3"></path>	<path class="st32" d="M757.5,198.7c-15.5,0-28.1-12.6-28.1-28.1c0-15.5,12.6-28.1,28.1-28.1s28.1,12.6,28.1,28.1v0   C785.5,186.2,773,198.7,757.5,198.7z"></path>	<path class="st64" d="M757.5,144.4c14.5,0,26.2,11.7,26.2,26.2c0,14.5-11.7,26.2-26.2,26.2c-14.5,0-26.2-11.7-26.2-26.2   c0,0,0,0,0,0C731.3,156.2,743,144.4,757.5,144.4L757.5,144.4 M757.5,140.8c-16.5,0-29.9,13.4-29.9,29.9c0,16.5,13.4,29.9,29.9,29.9   s29.9-13.4,29.9-29.9c0,0,0,0,0,0C787.4,154.2,774,140.8,757.5,140.8z"></path>	<path class="st41" d="M757.5,144.4c14.5,0.3,26,12.2,25.8,26.7c-0.3,14.1-11.6,25.5-25.8,25.8"></path>	<line class="st65" x1="757.5" y1="150.3" x2="757.5" y2="170.7"></line>	<line class="st66" x1="757.5" y1="171.1" x2="745.5" y2="180.4"></line>	<path class="st64" d="M798.5,161.1c-0.6,0.4-0.9,1-0.8,1.7c0.5,2.6,0.8,5.2,0.8,7.9c0,22.6-18.3,40.9-40.9,41   c-9.9,0-19.5-3.6-26.9-10.1c-0.5-0.4-1.3-0.5-1.9-0.2h-0.1c-0.8,0.5-1,1.5-0.5,2.3c0.1,0.1,0.2,0.3,0.3,0.4   c18.4,16.1,46.4,14.2,62.4-4.2c9-10.3,12.7-24.2,10.1-37.7c-0.2-0.9-1.1-1.5-2-1.3C798.8,160.9,798.7,160.9,798.5,161.1   L798.5,161.1z"></path>	<path class="st64" d="M716.5,180.3c0.6-0.4,0.9-1.1,0.8-1.8c-4.3-22.2,10.1-43.7,32.3-48c12.4-2.4,25.2,1,34.8,9.3   c0.5,0.5,1.3,0.6,1.9,0.2l0,0c0.8-0.4,1.1-1.5,0.6-2.3c-0.1-0.2-0.2-0.3-0.4-0.4c-18.4-16-46.4-14.1-62.4,4.3   c-9,10.3-12.7,24.1-10.1,37.5c0.2,0.9,1,1.5,1.9,1.3C716.2,180.5,716.4,180.4,716.5,180.3L716.5,180.3z"></path>	<path class="st67" d="M787.5,140.9l-8.3,0.3c-0.5,0-1-0.4-1-0.9c0,0,0,0,0,0c0-0.5,0.4-0.9,0.9-1c0,0,0,0,0,0l7.3-0.3l-0.3-7.1   c0-0.5,0.4-1,0.9-1c0.5,0,1,0.4,1,0.9l0,0l0.3,8c0,0.2-0.1,0.5-0.2,0.7C788,140.8,787.7,140.9,787.5,140.9L787.5,140.9z"></path>	<path class="st68" d="M727.2,199.7l8.3-0.1c0.5,0,1,0.3,1,0.9c0,0.5-0.3,1-0.9,1c-0.1,0-0.1,0-0.2,0l-7.4,0.1l0.1,7.3   c0,0.5-0.5,0.9-1,0.9c-0.5,0-0.8-0.4-0.9-0.9l-0.1-8.2c0-0.3,0.1-0.5,0.3-0.7C726.7,199.8,726.9,199.7,727.2,199.7L727.2,199.7z"></path>			<linearGradient id="SVGID_2_" gradientUnits="userSpaceOnUse" x1="586.68" y1="175.1024" x2="579.2104" y2="150.6672" gradientTransform="matrix(1 0 0 -1 0 650)">		<stop offset="0" style="stop-color:#D61395"></stop>		<stop offset="0.27" style="stop-color:#BB1089"></stop>		<stop offset="0.83" style="stop-color:#760769"></stop>		<stop offset="1" style="stop-color:#61045F"></stop>	</linearGradient>		<path class="st56" d="M582.6,487.7c-0.2-0.2-0.2-0.5,0.1-0.7c0.2-0.2,0.5-0.2,0.7,0c1.5,1.5,3.8,1.6,5.4,0.4   c0.1-0.4,0.1-0.8,0.1-1.2c0-0.5-0.1-1-0.2-1.5c-0.2,0.5-0.8,0.7-1.3,0.5s-0.7-0.8-0.5-1.3c0.2-0.4,0.5-0.6,0.9-0.6   c0.1,0,0.3,0,0.4,0.1c-1.5-2.9-5.1-4-8.1-2.5c-2.9,1.5-4,5.1-2.5,8.1c0.9,1.7,2.5,2.8,4.4,3.1l-0.6,1.2c-0.3,1.1,0.3,1.4,1.2,0.7   l4.2-3.4l0,0c0.6-0.5,1.1-1.1,1.4-1.8C586.4,489.6,584.1,489.2,582.6,487.7z M584.1,483.3c0.5,0,1,0.4,1,1c0,0.5-0.4,1-1,1   c-0.5,0-1-0.4-1-1c0,0,0,0,0,0C583.1,483.7,583.6,483.3,584.1,483.3C584.1,483.3,584.1,483.3,584.1,483.3L584.1,483.3z"></path>	<g>		<defs>			<rect id="SVGID_3_" x="652.8" y="150.3" width="32.3" height="32.3"></rect>		</defs>		<clipPath id="SVGID_4_">			<use xlink:href="#SVGID_3_" style="overflow:visible;"></use>		</clipPath>		<g class="st70">			<path class="st71" d="M684.3,170c-8.1,4-17.9,0.8-21.9-7.3c-1.8-3.6-2.2-7.7-1.2-11.6c-7.9,4.3-10.8,14.3-6.5,22.2     c4.3,7.9,14.3,10.8,22.2,6.5c3.9-2.1,6.8-5.8,7.9-10.1C684.7,169.8,684.5,169.9,684.3,170L684.3,170z"></path>		</g>	</g>	<path class="st72" d="M850.3,146c-0.4,0-0.7,0.3-0.7,0.7v4.1c0,0.4,0.4,0.6,0.8,0.6c0.3,0,0.6-0.3,0.6-0.6v-4.1   C851,146.3,850.7,146,850.3,146L850.3,146z"></path>	<path class="st72" d="M850.3,181.4c-0.4,0-0.7,0.3-0.7,0.7v0v4.1c0,0.4,0.4,0.6,0.8,0.6c0.3,0,0.6-0.3,0.6-0.6v-4.1   C851,181.7,850.7,181.4,850.3,181.4z"></path>	<path class="st72" d="M870.1,165.8H866c-0.4,0-0.6,0.4-0.6,0.8c0,0.3,0.3,0.6,0.6,0.6h4.1c0.4,0,0.7-0.2,0.8-0.6   c0-0.4-0.2-0.7-0.6-0.8C870.2,165.8,870.1,165.8,870.1,165.8z"></path>	<path class="st72" d="M835.3,166.5c0-0.4-0.3-0.7-0.7-0.7c0,0,0,0,0,0h-4.1c-0.4,0-0.6,0.4-0.6,0.8c0,0.3,0.3,0.6,0.6,0.6h4.1   C835,167.1,835.3,166.8,835.3,166.5L835.3,166.5z"></path>	<path class="st72" d="M861.4,156.1c0.2,0,0.4-0.1,0.5-0.2l3.9-3.9c0.3-0.3,0.3-0.7,0-1c-0.3-0.3-0.7-0.3-1,0l0,0l-3.9,3.9   c-0.3,0.3-0.3,0.7,0,1C861,156,861.2,156.1,861.4,156.1L861.4,156.1z"></path>	<path class="st72" d="M838.7,177.1l-3.9,3.9c-0.3,0.3-0.3,0.7,0,0.9c0,0,0,0,0,0c0.1,0.1,0.3,0.2,0.5,0.2c0.2,0,0.4-0.1,0.5-0.2   l3.9-3.9c0.3-0.3,0.3-0.7,0-1C839.4,176.8,839,176.8,838.7,177.1L838.7,177.1L838.7,177.1z"></path>	<path class="st72" d="M861.9,177.1c-0.3-0.3-0.7-0.3-1,0c-0.3,0.3-0.3,0.7,0,1c0,0,0,0,0,0l3.9,3.9c0.3,0.3,0.7,0.3,1,0   c0.3-0.3,0.3-0.7,0-1L861.9,177.1z"></path>	<path class="st72" d="M835.8,151c-0.3-0.3-0.7-0.3-1,0c0,0,0,0,0,0c-0.3,0.3-0.3,0.7,0,0.9c0,0,0,0,0,0l3.9,3.9   c0.3,0.3,0.7,0.3,1,0c0,0,0,0,0,0c0.3-0.3,0.3-0.7,0-1L835.8,151z"></path>	<path class="st72" d="M864.1,160.6c0.1,0.3,0.4,0.4,0.6,0.4c0.1,0,0.2,0,0.3-0.1l1.9-0.8c0.3-0.1,0.5-0.5,0.4-0.9c0,0,0,0,0,0   c-0.1-0.3-0.5-0.5-0.9-0.4l-1.9,0.8C864.1,159.8,864,160.2,864.1,160.6C864.1,160.6,864.1,160.6,864.1,160.6L864.1,160.6z"></path>	<path class="st72" d="M836.5,172.3c-0.2-0.3-0.5-0.5-0.9-0.4l-1.9,0.8c-0.3,0.1-0.5,0.5-0.4,0.9c0.1,0.3,0.4,0.4,0.6,0.4   c0.1,0,0.2,0,0.3,0l1.9-0.8C836.5,173.1,836.7,172.7,836.5,172.3C836.5,172.3,836.5,172.3,836.5,172.3L836.5,172.3z"></path>	<path class="st72" d="M867,172.5l-1.9-0.8c-0.3-0.2-0.7,0-0.9,0.3c-0.2,0.3,0,0.7,0.3,0.9c0,0,0,0,0.1,0l1.9,0.8c0.1,0,0.2,0,0.2,0   c0.4,0,0.7-0.3,0.7-0.7C867.4,172.8,867.3,172.6,867,172.5z"></path>	<path class="st72" d="M833.6,160.4l1.9,0.8c0.1,0,0.2,0.1,0.3,0c0.3,0,0.5-0.2,0.6-0.4c0.1-0.3,0-0.7-0.4-0.9c0,0,0,0,0,0l-1.9-0.8   c-0.4-0.1-0.7,0.1-0.8,0.5C833.2,160,833.3,160.3,833.6,160.4z"></path>	<path class="st72" d="M857.1,180.6c-0.1-0.3-0.5-0.5-0.9-0.4c-0.3,0.1-0.5,0.5-0.4,0.9l0.8,1.9c0.1,0.3,0.4,0.4,0.6,0.4   c0.1,0,0.2,0,0.3-0.1c0.3-0.1,0.5-0.5,0.4-0.9L857.1,180.6z"></path>	<path class="st72" d="M844.2,152.7c0.1,0,0.2,0,0.3-0.1c0.3-0.2,0.5-0.5,0.4-0.9l-0.8-1.9c-0.1-0.3-0.5-0.5-0.9-0.4   c-0.3,0.1-0.5,0.5-0.4,0.9l0.8,1.9C843.7,152.5,843.9,152.7,844.2,152.7L844.2,152.7z"></path>	<path class="st72" d="M844.7,180.4c-0.3-0.1-0.7,0-0.9,0.4c0,0,0,0,0,0l-0.8,1.9c-0.1,0.3,0,0.7,0.4,0.9c0,0,0,0,0,0   c0.1,0,0.2,0,0.2,0c0.3,0,0.5-0.2,0.6-0.4l0.8-1.9C845.2,180.9,845,180.5,844.7,180.4C844.7,180.4,844.7,180.4,844.7,180.4   L844.7,180.4z"></path>	<path class="st72" d="M856.2,152.6c0.3,0,0.5-0.2,0.6-0.4l0.8-1.9c0.1-0.3,0-0.7-0.4-0.9c-0.3-0.1-0.7,0-0.9,0.4c0,0,0,0,0,0   l-0.8,1.9c-0.1,0.3,0,0.7,0.4,0.9c0,0,0,0,0,0C856,152.6,856.1,152.6,856.2,152.6z"></path>	<path class="st72" d="M863.9,166.5c0,7.5-6.1,13.6-13.6,13.7s-13.6-6.1-13.7-13.6c0-7.5,6.1-13.6,13.6-13.7c0,0,0,0,0,0   C857.8,152.9,863.9,159,863.9,166.5L863.9,166.5z"></path>	<path class="st73" d="M860.5,166.5c0,5.6-4.6,10.2-10.2,10.2c-5.6,0-10.2-4.6-10.2-10.2c0-5.6,4.6-10.2,10.2-10.2   C855.9,156.2,860.5,160.8,860.5,166.5C860.5,166.4,860.5,166.4,860.5,166.5z"></path>	<polygon class="st74" points="721.2,336.4 741,333.2 741.8,333.2 737,346.7 732.3,343.5 728.3,346.7 726.8,340.3 721.2,337.2  "></polygon>															<path class="st78" d="M914.9,382.4c0,0.4,10.6,0.8,23.6,0.8"></path>	<path class="st79" d="M916.4,382.4c0,0,5,4.2,11.1,4.2c6.1,0,11.1-4.2,11.1-4.2"></path></g></svg>