<svg xmlns="http://www.w3.org/2000/svg" xmlns:xlink="http://www.w3.org/1999/xlink" x="0px" y="0px" viewBox="0 0 750 500" style="enable-background:new 0 0 750 500;" xml:space="preserve"><style type="text/css">	.st0{clip-path:url(#SVGID_2_);}	.st1{opacity:0.65;fill:url(#SVGID_3_);}	.st2{opacity:0.65;fill:url(#SVGID_4_);}	.st3{opacity:0.65;fill:url(#SVGID_5_);}	.st4{opacity:0.65;fill:url(#SVGID_6_);}	.st5{opacity:0.65;fill:url(#SVGID_7_);}	.st6{opacity:0.65;fill:url(#SVGID_8_);}	.st7{opacity:0.65;fill:url(#SVGID_9_);}	.st8{opacity:0.65;fill:url(#SVGID_10_);}</style><g id="BACKGROUND"></g><g id="OBJECTS">	<g>		<defs>			<rect id="SVGID_1_" width="750" height="500"></rect>		</defs>		<clipPath id="SVGID_2_">			<use xlink:href="#SVGID_1_" style="overflow:visible;opacity:0.65;"></use>		</clipPath>		<g class="st0">			<linearGradient id="SVGID_3_" gradientUnits="userSpaceOnUse" x1="27.7265" y1="184.2158" x2="156.6296" y2="137.7641">				<stop offset="0" style="stop-color:#FFFFFF"></stop>				<stop offset="0.34" style="stop-color:#FAFBFC"></stop>				<stop offset="0.7145" style="stop-color:#EDF0F2"></stop>				<stop offset="1" style="stop-color:#DEE3E6"></stop>			</linearGradient>			<polygon class="st1" points="-16,-16 278,310 -23,292 -31,7    "></polygon>			<linearGradient id="SVGID_4_" gradientUnits="userSpaceOnUse" x1="175.4757" y1="367.3152" x2="151.4758" y2="503.5732">				<stop offset="0" style="stop-color:#FFFFFF"></stop>				<stop offset="1" style="stop-color:#DEE3E6"></stop>			</linearGradient>			<polygon class="st2" points="-28,333 350,566 -23,543    "></polygon>			<linearGradient id="SVGID_5_" gradientUnits="userSpaceOnUse" x1="293.3757" y1="430.8185" x2="300.3435" y2="282.1734">				<stop offset="0" style="stop-color:#FFFFFF"></stop>				<stop offset="1" style="stop-color:#DEE3E6"></stop>			</linearGradient>			<polygon class="st3" points="-23,242 613,566 350,566 -28,333    "></polygon>			<linearGradient id="SVGID_6_" gradientUnits="userSpaceOnUse" x1="401.2128" y1="439.2213" x2="459.2773" y2="390.4471">				<stop offset="0" style="stop-color:#FFFFFF"></stop>				<stop offset="1" style="stop-color:#DEE3E6"></stop>			</linearGradient>			<polygon class="st4" points="464.5,603.5 212.5,205.5 684.5,593.5    "></polygon>			<linearGradient id="SVGID_7_" gradientUnits="userSpaceOnUse" x1="536.0672" y1="276.4095" x2="465.7038" y2="177.9008">				<stop offset="0" style="stop-color:#FFFFFF"></stop>				<stop offset="1" style="stop-color:#DEE3E6"></stop>			</linearGradient>			<polygon class="st5" points="278.5,309.7 750,182 750,339    "></polygon>			<linearGradient id="SVGID_8_" gradientUnits="userSpaceOnUse" x1="294.8868" y1="441.7101" x2="314.6288" y2="312.807">				<stop offset="0" style="stop-color:#FFFFFF"></stop>				<stop offset="1" style="stop-color:#DEE3E6"></stop>			</linearGradient>			<polygon class="st6" points="90,514 278,310 464,603    "></polygon>			<linearGradient id="SVGID_9_" gradientUnits="userSpaceOnUse" x1="362.8745" y1="231.9957" x2="346.6165" y2="101.9314">				<stop offset="0" style="stop-color:#FFFFFF"></stop>				<stop offset="1" style="stop-color:#DEE3E6"></stop>			</linearGradient>			<polygon class="st7" points="-23,188 769,314 764,359 -23,312    "></polygon>			<linearGradient id="SVGID_10_" gradientUnits="userSpaceOnUse" x1="71.5524" y1="422.5268" x2="36.7137" y2="520.0752">				<stop offset="0" style="stop-color:#FFFFFF"></stop>				<stop offset="1" style="stop-color:#DEE3E6;stop-opacity:0"></stop>			</linearGradient>			<polygon class="st8" points="-23,434.5 153.9,444.6 90,515 -10,515    "></polygon>		</g>	</g></g></svg>